<svg t="1685176945891" class="icon" viewBox="0 0 1025 1024" version="1.1" xmlns="http://www.w3.org/2000/svg" p-id="7778" width="200" height="200"><path d="M1018.269312 295.003431c-5.699973-6.899968-14.199933-10.999948-23.099892-10.999948h-742.996502c-30.799855-99.599531-69.699672-212.998997-81.899615-240.498868C144.573424-14.195113 44.373896 0.804816 24.473989 4.504799 8.274066 7.404785-2.425884 22.904712 0.474102 39.104636S18.974015 66.004509 35.173939 63.204522c36.899826-6.699968 75.199646-2.999986 80.599621 4.499979 17.09992 38.599818 93.39956 267.498741 113.699464 354.998329l79.899624 392.798151C277.972796 835.600887 256.972895 870.700722 256.972895 910.700533c0 62.399706 50.799761 113.299467 113.299467 113.299467s113.199467-50.799761 113.199467-113.299467c0-19.499908-5.399975-37.499823-14.099934-53.499748h296.198606c-8.699959 15.999925-14.099934 34.099839-14.099934 53.499748 0 62.399706 50.799761 113.299467 113.299467 113.299467S977.969501 973.200239 977.969501 910.700533c0-40.699808-21.799897-76.199641-54.099745-96.099547l100.599526-494.697672c1.799992-8.799959-0.499998-17.899916-6.19997-24.899883zM423.67211 910.700533c0 29.499861-23.999887 53.599748-53.499748 53.599748s-53.599748-23.999887-53.599748-53.599748c0-29.499861 23.999887-53.499748 53.599748-53.499748 29.499861 0 53.499748 23.999887 53.499748 53.499748z m440.997925 53.599748c-29.499861 0-53.599748-23.999887-53.599748-53.599748 0-29.499861 23.999887-53.499748 53.599748-53.499748 29.499861 0 53.499748 23.999887 53.499748 53.499748 0.1 29.599861-23.899888 53.599748-53.499748 53.599748z m1.699992-166.799215H366.572379l-92.299565-453.697864h684.396778l-92.299565 453.697864z" fill="#040000" p-id="7779"></path></svg>