<svg t="1685156157060" class="icon" viewBox="0 0 1024 1024" version="1.1" xmlns="http://www.w3.org/2000/svg" p-id="18892" width="200" height="200"><path d="M476 256.2c-51.9 0-100.6 20.7-137.4 58.3-15.2 15.5-15.2 40.8 0 56.3s39.8 15.5 55 0c44-45.1 120.8-45.1 164.8 0 7.6 7.8 17.5 11.7 27.5 11.7 9.9 0 19.9-3.9 27.5-11.7 15.2-15.5 15.2-40.7 0-56.3-36.8-37.6-85.5-58.3-137.4-58.3z m429.7 602.9L762.9 712.7c51.4-65 82.2-147.7 82.2-237.6C845.1 266.6 679.5 97 476 97c-203.5 0-369.1 169.6-369.1 378.1 0 208.5 165.6 378.1 369.1 378.1 87.8 0 168.5-31.6 231.9-84.2l142.8 146.3c7.6 7.8 17.5 11.7 27.5 11.7 9.9 0 19.9-3.9 27.5-11.7 15.2-15.5 15.2-40.7 0-56.2zM476 773.6c-160.7 0-291.4-133.9-291.4-298.5S315.3 176.6 476 176.6s291.4 133.9 291.4 298.5S636.7 773.6 476 773.6z" p-id="18893" fill="#FCFCFC"></path></svg>