<?xml version="1.0" encoding="UTF-8"?>
<svg width="30px" height="28px" viewBox="0 0 30 28" version="1.1" xmlns="http://www.w3.org/2000/svg" xmlns:xlink="http://www.w3.org/1999/xlink">
    <title>打开的箱子</title>
    <defs>
        <filter id="filter-1">
            <feColorMatrix in="SourceGraphic" type="matrix" values="0 0 0 0 0.690196 0 0 0 0 0.545098 0 0 0 0 0.341176 0 0 0 1.000000 0"></feColorMatrix>
        </filter>
    </defs>
    <g id="我的" stroke="none" stroke-width="1" fill="none" fill-rule="evenodd">
        <g id="封坛" transform="translate(-197.000000, -472.000000)">
            <g id="打开的箱子" transform="translate(196.000000, 470.000000)" filter="url(#filter-1)">
                <g transform="translate(1.066667, 2.133333)">
                    <path d="M12.0529232,0.660862515 L12.0670897,0.67815881 L15.0552305,4.44941004 L18.0433714,0.682309921 L18.0576367,0.664848899 C18.2889788,0.390183733 18.6828731,0.31510134 18.9998071,0.488261962 L29.033635,5.9698038 L29.0527433,5.98060986 C29.4054889,6.18651814 29.5324601,6.63727606 29.33548,6.99822503 C29.314162,7.03728633 29.2894454,7.07439433 29.2616166,7.10911899 L26.0172929,11.157078 L27.771862,15.2228604 C27.92855,15.5860167 27.7796042,16.0072886 27.4327558,16.1921119 L27.4136475,16.2019625 L25.3512702,17.2278799 C25.3989617,17.341472 25.4248461,17.4630259 25.4275716,17.5861932 L25.4278352,17.6094526 L25.4278352,21.7268275 C25.4278701,22.0907732 25.2272833,22.4251013 24.906146,22.5963534 L24.8841055,22.6077525 L15.2552087,27.4336494 C14.986537,27.5683027 14.6710735,27.5728526 14.3986302,27.4460039 L14.3724716,27.43332 L4.75991563,22.607456 C4.43489649,22.4442265 4.22622674,22.1152259 4.21710848,21.7516353 L4.21677902,21.7268275 L4.21677902,17.6094526 C4.21677902,17.6007221 4.2169108,17.5920246 4.21710848,17.5833599 L1.97132458,16.466184 L1.95221629,16.4563334 C1.60536792,16.271543 1.45638917,15.8502712 1.61311007,15.4871149 L3.59770344,10.8881783 L0.600996774,7.1150162 C0.572596348,7.07923696 0.547488662,7.04096345 0.525980271,7.00066299 C0.332261766,6.63793497 0.46335121,6.18836308 0.817941732,5.98561755 L0.837148856,5.97500916 L11.1164853,0.480519811 C11.4328922,0.311411463 11.8233272,0.387778724 12.0529561,0.660862515 L12.0529232,0.660862515 Z M14.7379012,17.5981524 L13.4860448,21.2379518 L13.4787309,21.2582791 C13.3350563,21.640906 12.9120384,21.8418725 12.5232506,21.7080157 C12.4921924,21.6973251 12.4618626,21.6846253 12.4324533,21.6699968 L6.18634933,18.5629233 L6.18634933,21.1188544 L14.8144661,25.4505056 L23.4582319,21.1183273 L23.4582319,18.1694902 L16.9524529,21.4057753 C16.9230657,21.420403 16.892756,21.4331199 16.8616885,21.4437942 C16.4729008,21.5776181 16.0498828,21.3766845 15.9061753,20.9940246 L15.8988944,20.9737303 L14.7379012,17.5981524 L14.7379012,17.5981524 Z M5.12363201,12.3235401 L3.8766515,15.2132733 L12.0729869,19.2904219 L13.1389987,16.1907282 L5.12363201,12.3235401 Z M24.2612412,12.0593186 L16.2459404,15.9266055 L17.3120511,19.0262004 L25.5083535,14.948986 L24.2613071,12.0593186 L24.2612412,12.0593186 Z M15.0769744,6.27016632 L6.23138558,10.6703438 L14.418661,14.6204881 L23.1061782,10.4289534 L15.0769744,6.27016632 Z M18.9517728,2.70709659 L17.0677615,5.08228972 L25.0485027,9.21597246 L26.8200057,7.00553889 L18.9517399,2.70709659 L18.9517728,2.70709659 Z M11.1521651,2.69556572 L3.04731886,7.02767815 L4.76986512,9.19656766 L13.0426007,5.08146608 L11.152198,2.69556572 L11.1521651,2.69556572 Z" id="形状" fill="#333333" fill-rule="nonzero"></path>
                </g>
            </g>
        </g>
    </g>
</svg>