<?xml version="1.0" encoding="UTF-8"?>
<svg width="22px" height="24px" viewBox="0 0 22 24" version="1.1" xmlns="http://www.w3.org/2000/svg" xmlns:xlink="http://www.w3.org/1999/xlink">
    <title>发票抬头</title>
    <defs>
        <filter id="filter-1">
            <feColorMatrix in="SourceGraphic" type="matrix" values="0 0 0 0 0.690196 0 0 0 0 0.545098 0 0 0 0 0.341176 0 0 0 1.000000 0"></feColorMatrix>
        </filter>
    </defs>
    <g id="我的" stroke="none" stroke-width="1" fill="none" fill-rule="evenodd">
        <g id="封坛" transform="translate(-225.000000, -644.000000)">
            <g id="客服" transform="translate(60.000000, 637.000000)">
                <g id="发票抬头" transform="translate(162.000000, 5.000000)" filter="url(#filter-1)">
                    <g transform="translate(2.531250, 2.531250)">
                        <rect id="矩形" fill="#000000" fill-rule="nonzero" opacity="0" x="0" y="0" width="22.7812188" height="22.7812188"></rect>
                        <path d="M18.3730529,0 L4.19743956,0 C3.28109577,0 2.402366,0.36440427 1.75494748,1.01289113 C1.10752897,1.661378 0.744572797,2.5407074 0.745921597,3.45704995 L0.745921597,21.1466441 C0.73753712,21.7204838 1.06513734,22.2463741 1.5839702,22.4916851 C2.10280307,22.7369962 2.7171292,22.6564611 3.1551988,22.285705 L3.98671329,21.5624013 L5.27385215,22.4337829 C5.61050683,22.6603589 6.00711383,22.7812196 6.41291309,22.7812196 C6.83832388,22.7832055 7.25399731,22.653929 7.60323177,22.4110017 L8.83911289,21.5282295 L10.0920799,22.4110017 C10.7972015,22.8952525 11.7277286,22.8952525 12.4328501,22.4110017 L13.7484655,21.5111436 L14.8875265,22.3369628 C15.6386261,22.8833243 16.662323,22.8600055 17.3877652,22.2800097 L18.3104046,21.5453154 L19.5121139,22.3939158 C19.9589578,22.7118742 20.5460542,22.7533627 21.0331725,22.501405 C21.5202909,22.2494472 21.8256909,21.7463226 21.8244116,21.1979018 L21.8244116,3.4570277 C21.8244116,1.54998237 20.2800957,0.00314175506 18.3730529,0 Z M19.5405904,19.6430836 L19.4836374,19.6032165 C18.7341406,19.0781078 17.7285982,19.1082277 17.0118751,19.6772555 L16.0949311,20.4119498 L14.9558701,19.5975212 C14.2551074,19.0813039 13.3043572,19.0653057 12.5866234,19.5576541 L11.2653127,20.4575122 L10.0066503,19.57474 C9.66210143,19.3303425 9.2501487,19.1989952 8.82772228,19.1988499 C8.40125655,19.201284 7.98579919,19.3344689 7.6374036,19.5804353 L6.39582717,20.4575122 L5.12577423,19.5804353 C4.50073901,19.1565691 3.69329552,19.110617 3.02420679,19.4608339 L3.02420679,3.4570277 C3.02420679,2.80815007 3.5485695,2.28125655 4.19743956,2.27812188 L18.3673576,2.27812188 C19.0162364,2.28125659 19.5405904,2.80816364 19.5405904,3.45704995 L19.5405904,19.6430836 Z" id="形状" fill="#0A0A0A" fill-rule="nonzero"></path>
                        <path d="M14.1983946,10.6900869 C14.8620803,10.6900869 15.4001039,10.1520633 15.4001039,9.48837762 C15.4001039,8.82469191 14.8620803,8.28666833 14.1983946,8.28666833 L13.7029031,8.28666833 L14.785011,7.20456044 C15.2568255,6.73274595 15.2568255,5.96778353 14.785011,5.49596904 C14.3131965,5.02415456 13.5482341,5.02415455 13.0764196,5.49596903 L11.065977,7.51210689 L9.11248751,5.55292208 C8.64067302,5.0811076 7.8757106,5.08110761 7.40389612,5.55292209 C6.93208163,6.02473658 6.93208163,6.789699 7.4038961,7.26151349 L8.44044156,8.29805894 L7.97342657,8.29805894 C7.30974087,8.29805896 6.77171732,8.83608253 6.77171732,9.49976823 C6.77171732,10.1634539 7.30974087,10.7014775 7.97342657,10.7014775 L9.87565834,10.7014775 L9.87565834,11.8405385 L7.97342657,11.8405385 C7.52535722,11.8095766 7.09742014,12.0310642 6.8639664,12.4147621 C6.63051266,12.7984601 6.63051266,13.2803178 6.8639664,13.6640158 C7.09742014,14.0477138 7.52535722,14.2692013 7.97342657,14.2382395 L9.87565834,14.2382395 L9.87565834,15.3773004 C9.87565834,16.0409861 10.4136819,16.5790097 11.0773676,16.5790097 C11.7410533,16.5790097 12.2790769,16.0409861 12.2790769,15.3773004 L12.2790769,14.2382617 L14.1756134,14.2382617 C14.6236483,14.2691607 15.051524,14.0476563 15.2849404,13.6639809 C15.5183568,13.2803056 15.5183568,12.7984946 15.2849404,12.4148193 C15.051524,12.0311439 14.6236483,11.8096395 14.1756134,11.8405385 L12.3018581,11.8405385 L12.3018581,10.7014775 L14.1983946,10.6900869 Z" id="路径" fill="#0A0A0A" fill-rule="nonzero"></path>
                    </g>
                </g>
            </g>
        </g>
    </g>
</svg>