<?xml version="1.0" encoding="UTF-8"?>
<svg width="30px" height="26px" viewBox="0 0 30 26" version="1.1" xmlns="http://www.w3.org/2000/svg" xmlns:xlink="http://www.w3.org/1999/xlink">
    <title>海报</title>
    <defs>
        <filter id="filter-1">
            <feColorMatrix in="SourceGraphic" type="matrix" values="0 0 0 0 0.690196 0 0 0 0 0.545098 0 0 0 0 0.341176 0 0 0 1.000000 0"></feColorMatrix>
        </filter>
    </defs>
    <g id="我的" stroke="none" stroke-width="1" fill="none" fill-rule="evenodd">
        <g id="封坛" transform="translate(-140.000000, -705.000000)">
            <g id="客服" transform="translate(60.000000, 637.000000)">
                <g id="海报" transform="translate(78.000000, 64.000000)" filter="url(#filter-1)">
                    <g transform="translate(-1.062500, -1.062500)">
                        <rect id="矩形" fill="#000000" fill-rule="nonzero" opacity="0" x="0" y="0" width="36.1216797" height="36.1216797"></rect>
                        <path d="M28.2200623,16.9320374 C29.4538434,16.9320374 30.6108659,17.2616477 31.6075985,17.8384658 L31.6064697,25.9624573 C31.6064697,27.8327185 30.0903235,29.3488647 28.2200623,29.3488647 L9.04848076,29.3488647 C8.83824916,26.2122839 10.3832988,23.2174682 13.0611972,21.570897 C15.7390955,19.9243258 19.1088671,19.8971436 21.8129793,21.500301 C22.7551859,18.7664606 25.3284128,16.9317444 28.2200623,16.9320374 Z" id="路径" fill="#CCD9FF" fill-rule="nonzero"></path>
                        <path d="M27.9254448,16.3732801 C25.2167865,16.4820823 22.7885758,18.0748496 21.6097949,20.5159853 L21.5240059,20.7011089 L21.4506337,20.6638584 C18.554975,19.2535513 15.1273586,19.492263 12.4551432,21.2903371 C9.78292785,23.0884111 8.27066513,26.1736338 8.48633712,29.387244 C8.50592904,29.6834515 8.7516266,29.9138546 9.04848076,29.9143948 L28.2200623,29.913266 C30.4020337,29.913266 32.170871,28.1444287 32.170871,25.9624573 L32.1719998,17.8384658 C32.1719998,17.6368297 32.0644211,17.4505123 31.8897992,17.3496943 C30.7745553,16.7044646 29.5085056,16.3656571 28.2200623,16.3676275 L27.9254448,16.3732801 L27.9254448,16.3732801 Z M28.5508014,17.505469 C29.4189643,17.5497533 30.2679535,17.7770993 31.0420685,18.1725913 L31.0420685,25.9613285 L31.0364245,26.1475809 C30.9388869,27.6312316 29.7069156,28.7846925 28.2200623,28.7844635 L9.59482091,28.7844635 C9.59409935,25.9447686 11.1172115,23.3230694 13.5844648,21.9171785 C16.0517181,20.5112877 19.0836306,20.5374416 21.5262635,21.9856861 C21.6722111,22.0723504 21.8494127,22.0887282 22.0087721,22.0302818 C22.1681316,21.9718354 22.2927248,21.8447719 22.3480317,21.6842958 C23.2112729,19.1783943 25.5696419,17.4964386 28.2200623,17.4964386 L28.5508014,17.505469 Z" id="形状" fill="#4078FD" fill-rule="nonzero"></path>
                        <path d="M28.2200623,5.64401245 L7.90161743,5.64401245 C5.40793583,5.64401245 3.38640747,7.66554081 3.38640747,10.1592224 L3.38640747,25.9624573 C3.38640747,28.4561389 5.40793583,30.4776672 7.90161743,30.4776672 L28.2200623,30.4776672 C30.7137439,30.4776672 32.7352722,28.4561389 32.7352722,25.9624573 L32.7352722,10.1592224 C32.7352722,7.66554081 30.7137439,5.64401245 28.2200623,5.64401245 Z M7.90161743,7.90161743 L28.2200623,7.90161743 C29.4669031,7.90161743 30.4776672,8.91238161 30.4776672,10.1592224 L30.4776672,25.9624573 C30.4776672,27.2092981 29.4669031,28.2200623 28.2200623,28.2200623 L7.90161743,28.2200623 C6.65477663,28.2200623 5.64401245,27.2092981 5.64401245,25.9624573 L5.64401245,10.1592224 C5.64401245,8.91238161 6.65477663,7.90161743 7.90161743,7.90161743 Z" id="形状" fill="#4078FD" fill-rule="nonzero"></path>
                        <path d="M7.90161743,12.9812286 C7.90161743,14.5397796 9.16507265,15.8032349 10.7236237,15.8032349 C12.2821747,15.8032349 13.5456299,14.5397796 13.5456299,12.9812286 C13.5456299,11.4226776 12.2821747,10.1592224 10.7236237,10.1592224 C9.16507265,10.1592224 7.90161743,11.4226776 7.90161743,12.9812286 L7.90161743,12.9812286 Z" id="路径" fill="#FE9C23" fill-rule="nonzero"></path>
                    </g>
                </g>
            </g>
        </g>
    </g>
</svg>