<?xml version="1.0" encoding="UTF-8"?>
<svg width="27px" height="31px" viewBox="0 0 27 31" version="1.1" xmlns="http://www.w3.org/2000/svg" xmlns:xlink="http://www.w3.org/1999/xlink">
    <title>合同管理</title>
    <defs>
        <filter id="filter-1">
            <feColorMatrix in="SourceGraphic" type="matrix" values="0 0 0 0 0.690196 0 0 0 0 0.545098 0 0 0 0 0.341176 0 0 0 1.000000 0"></feColorMatrix>
        </filter>
    </defs>
    <g id="我的" stroke="none" stroke-width="1" fill="none" fill-rule="evenodd">
        <g id="封坛" transform="translate(-143.000000, -639.000000)">
            <g id="客服" transform="translate(60.000000, 637.000000)">
                <g id="合同管理" transform="translate(78.000000, 0.000000)" filter="url(#filter-1)">
                    <g transform="translate(-2.250000, -2.250000)">
                        <rect id="矩形" fill="#000000" fill-rule="nonzero" opacity="0" x="0" y="0" width="40.5" height="40.5"></rect>
                        <path d="M17.9489355,29.8774512 L29.6286768,29.8774512 C29.7059326,29.8774512 29.7445605,29.9160791 29.7445605,29.993335 L29.7445605,34.7216309 C29.7445605,34.7988867 29.7059326,34.8375146 29.6286768,34.8375146 L17.9489355,34.8375146 C17.8716797,34.8375146 17.8330518,34.7988867 17.8330518,34.7216309 L17.8330518,29.993335 C17.8330518,29.9160791 17.8716797,29.8774512 17.9489355,29.8774512 L17.9489355,29.8774512 Z M22.5261475,21.969668 C22.5261475,24.1035393 24.255992,25.8333838 26.3898633,25.8333838 C28.5237346,25.8333838 30.2535791,24.1035393 30.2535791,21.969668 C30.2535791,19.8357966 28.5237346,18.1059521 26.3898633,18.1059521 C24.255992,18.1059521 22.5261475,19.8357966 22.5261475,21.969668 L22.5261475,21.969668 Z M15.8816162,5.88555176 L15.8816162,13.5279492 L8.57975098,13.519248 L15.8816162,5.88555176 L15.8816162,5.88555176 Z" id="形状" fill="#279ACC" fill-rule="nonzero"></path>
                        <path d="M16.6085596,34.546224 L7.8061377,34.546224 L7.8061377,12.7001514 L14.8710938,12.7001514 L14.8710938,5.0625 L31.941014,5.0625 L31.941014,16.857334 C31.9487283,17.2951441 31.7196884,17.7031265 31.3417976,17.9243477 C30.9639068,18.1455689 30.4960298,18.1455689 30.1181389,17.9243477 C29.7402481,17.7031265 29.5112082,17.2951441 29.5191211,16.857334 L29.5191211,7.48379883 L17.2912061,7.48379883 L17.2912061,15.1218457 L10.227832,15.1218457 L10.227832,32.1243311 L16.6085596,32.1243311 C17.0463697,32.1164181 17.454352,32.345458 17.6755733,32.7233489 C17.8967945,33.1012397 17.8967945,33.5691167 17.6755733,33.9470076 C17.454352,34.3248984 17.0463697,34.5539383 16.6085596,34.546224 L16.6085596,34.546224 Z" id="路径" fill="#303030" fill-rule="nonzero"></path>
                        <line x1="8.69879883" y1="13.5208301" x2="15.7629639" y2="5.8926709" id="路径" fill="#279ACC" fill-rule="nonzero"></line>
                        <path d="M7.81013232,12.6979761 L14.8754443,5.07080566 L16.6520259,6.71651367 L9.58671387,14.3437236 L7.81013232,12.6979761 Z M26.3898633,26.2071387 C24.0495728,26.2071387 22.1523926,24.3099584 22.1523926,21.969668 C22.1523926,19.6293775 24.0495728,17.7321973 26.3898633,17.7321973 C28.7301537,17.7321973 30.627334,19.6293775 30.627334,21.969668 C30.6245009,24.3087839 28.7289792,26.2043056 26.3898633,26.2071387 L26.3898633,26.2071387 Z M26.3898633,20.1558691 C25.6554143,20.1557092 24.993195,20.5980074 24.7120227,21.2765039 C24.4308504,21.9550003 24.5861029,22.736063 25.1053802,23.2554534 C25.6246574,23.7748438 26.4056862,23.9302664 27.0842439,23.6492419 C27.7628016,23.3682174 28.2052441,22.7060945 28.2052441,21.9716455 C28.2043747,20.9690141 27.3924927,20.1560709 26.3898633,20.1538916 L26.3898633,20.1558691 Z" id="形状" fill="#303030" fill-rule="nonzero"></path>
                        <path d="M23.4195996,31.0869146 C22.886991,31.0874347 22.4165587,30.7399209 22.260514,30.2306839 C22.1044692,29.721447 22.2994444,29.1700333 22.7409082,28.8720703 C23.6406885,28.2633838 23.7296777,26.0813672 23.6296143,25.1202832 C23.5619846,24.4566727 24.0437153,23.8633169 24.7070644,23.7931696 C25.3704135,23.7230224 25.965593,24.202498 26.0382568,24.8655762 C26.0857178,25.3144775 26.4381152,29.2952637 24.0963135,30.8772949 C23.896817,31.013345 23.6610705,31.0863699 23.4195996,31.0869146 L23.4195996,31.0869146 Z M29.5258447,31.0869141 C29.2846028,31.0868078 29.0489155,31.01449 28.8491309,30.8792725 C26.5069336,29.2972412 26.8593311,25.314873 26.9071875,24.8675537 C26.9775229,24.2025346 27.5736455,23.7204483 28.2386646,23.7907837 C28.9036836,23.8611191 29.38577,24.4572417 29.3154346,25.1222607 C29.2165576,26.0833447 29.3043604,28.2653613 30.2049316,28.8736523 C30.645886,29.171957 30.8404138,29.7231841 30.6843535,30.2321748 C30.5282933,30.7411656 30.0582228,31.0886221 29.5258447,31.0884961 L29.5258447,31.0869141 Z" id="形状" fill="#303030" fill-rule="nonzero"></path>
                        <path d="M31.0722803,34.8837891 L21.7078418,34.8837891 C20.2569875,34.8822631 19.0812183,33.7064939 19.0796924,32.2556396 L19.0796924,31.2945557 C19.0812183,29.8437014 20.2569875,28.6679322 21.7078418,28.6664062 L31.0722803,28.6664062 C32.5230443,28.6681497 33.6986862,29.8437916 33.7004297,31.2945557 L33.7004297,32.2540576 C33.6995581,33.7054395 32.5236613,34.8820441 31.0722803,34.8837891 L31.0722803,34.8837891 Z M21.7078418,31.0869141 C21.5939101,31.0871317 21.5016044,31.1794374 21.5013867,31.2933691 L21.5013867,32.2528711 C21.5016044,32.3668028 21.5939101,32.4591085 21.7078418,32.4593262 L31.0722803,32.4593262 C31.1861478,32.459108 31.2783398,32.3667388 31.2783398,32.2528711 L31.2783398,31.2945557 C31.2783398,31.1806879 31.1861478,31.0883187 31.0722803,31.0881006 L21.7078418,31.0869141 Z" id="形状" fill="#303030" fill-rule="nonzero"></path>
                    </g>
                </g>
            </g>
        </g>
    </g>
</svg>