<?xml version="1.0" encoding="UTF-8"?>
<svg width="28px" height="28px" viewBox="0 0 28 28" version="1.1" xmlns="http://www.w3.org/2000/svg" xmlns:xlink="http://www.w3.org/1999/xlink">
    <title>客服</title>
    <defs>
        <filter id="filter-1">
            <feColorMatrix in="SourceGraphic" type="matrix" values="0 0 0 0 0.690196 0 0 0 0 0.545098 0 0 0 0 0.341176 0 0 0 1.000000 0"></feColorMatrix>
        </filter>
    </defs>
    <g id="我的" stroke="none" stroke-width="1" fill="none" fill-rule="evenodd">
        <g id="封坛" transform="translate(-62.000000, -640.000000)">
            <g id="客服" transform="translate(60.000000, 637.000000)">
                <g id="客服" transform="translate(0.000000, 1.000000)" filter="url(#filter-1)">
                    <g>
                        <rect id="矩形" fill="#000000" fill-rule="nonzero" opacity="0" x="0" y="0" width="32" height="32"></rect>
                        <path d="M27.6301563,14.1091875 C27.5522188,7.7496875 22.3787188,2.61690625 16.000125,2.61690625 C9.62153125,2.61690625 4.4480625,7.7496875 4.36996875,14.1091875 C3.302375,14.96275 2.61696875,16.27325 2.61696875,17.74575 C2.61696875,20.3161875 4.70125,22.4010312 7.27196875,22.4010312 C8.3938125,22.4010312 9.42253125,22.0033437 10.2261563,21.343 L8.03303125,13.1579063 C7.784625,13.1174688 7.531625,13.0905625 7.272,13.0905625 C7.1009375,13.0905625 6.93278125,13.1011563 6.76628125,13.1195 C7.32734375,8.5148125 11.2434063,4.94446875 16.0002813,4.94446875 C20.7565,4.94446875 24.6731563,8.51478125 25.2340625,13.1195 C25.06825,13.1012813 24.8995313,13.0905625 24.7284375,13.0905625 C24.4689063,13.0905625 24.2152813,13.1175313 23.9667188,13.1579063 L21.77425,21.3391875 C22.3944688,21.8484062 23.1486563,22.2004062 23.9760938,22.3350625 C22.8780313,23.5147812 21.4815625,24.4135312 19.9017813,24.8996875 L19.7091563,25.0920625 C19.2163438,24.186125 18.2678438,23.5641875 17.1640938,23.5641875 C15.557,23.5641875 14.2546563,24.8665 14.2546563,26.474125 C14.2546563,28.0813437 15.5569375,29.383625 17.1640938,29.383625 C18.4831875,29.383625 19.5834375,28.5001875 19.9407188,27.2974375 C23.1517188,26.5102812 25.841625,24.3965312 27.3867188,21.563625 C28.5928125,20.7224687 29.3835625,19.3273125 29.3835625,17.7456563 C29.3835625,16.2735313 28.6974688,14.9625938 27.630375,14.1090625 L27.6301563,14.1091875 Z" id="路径" fill="#272636" fill-rule="nonzero"></path>
                    </g>
                </g>
            </g>
        </g>
    </g>
</svg>