<?xml version="1.0" encoding="UTF-8"?>
<svg width="26px" height="29px" viewBox="0 0 26 29" version="1.1" xmlns="http://www.w3.org/2000/svg" xmlns:xlink="http://www.w3.org/1999/xlink">
    <title>权益中心</title>
    <defs>
        <filter id="filter-1">
            <feColorMatrix in="SourceGraphic" type="matrix" values="0 0 0 0 0.690196 0 0 0 0 0.545098 0 0 0 0 0.341176 0 0 0 1.000000 0"></feColorMatrix>
        </filter>
    </defs>
    <g id="我的" stroke="none" stroke-width="1" fill="none" fill-rule="evenodd">
        <g id="封坛" transform="translate(-223.000000, -706.000000)">
            <g id="客服" transform="translate(60.000000, 637.000000)">
                <g id="权益中心" transform="translate(160.000000, 67.000000)" filter="url(#filter-1)">
                    <g transform="translate(-0.000000, 0.000000)">
                        <rect id="矩形" fill="#000000" fill-rule="nonzero" opacity="0" x="0" y="0" width="31.996875" height="31.996875"></rect>
                        <path d="M28.2324302,25.2967169 L25.162355,20.5964259 C26.0393687,20.0802431 26.5783801,19.1390911 26.5798103,18.1214489 L26.5798103,9.31268422 C26.5798103,8.29037781 26.0294578,7.33850203 25.1447317,6.82814562 L17.5151019,2.42376328 C16.6270223,1.91341568 15.5346491,1.91341568 14.6465695,2.42376328 L7.01690844,6.82814562 C6.13042627,7.3418604 5.58388012,8.28811141 5.58186109,9.31268422 L5.58186109,18.1214177 C5.58186109,19.0893231 6.07618781,19.9964533 6.88251531,20.5228081 L3.76444484,25.2967169 C3.60446047,25.5430991 3.59005562,25.8566622 3.73082313,26.114262 C3.87159063,26.3718619 4.14040812,26.5334086 4.43475438,26.5334086 L8.93512734,26.5334086 L10.7829469,29.8354923 C10.9229548,30.085549 11.1859081,30.2417337 11.4724733,30.2450461 L11.4820661,30.2450461 C11.7652572,30.2450461 12.0276378,30.0962481 12.1716237,29.8514908 L14.9425406,25.157543 C15.3056927,25.3143402 15.6944672,25.3943323 16.0832417,25.3943323 C16.4255833,25.3943323 16.7663625,25.3319322 17.0911433,25.2103503 L19.8300633,29.8514595 C19.9740492,30.0946545 20.2364298,30.2450461 20.5195897,30.2450461 L20.5291825,30.2450461 C20.8155608,30.2418589 21.0779414,30.0850617 21.2187402,29.8354923 L23.0665597,26.5334086 L27.5669014,26.5334086 C27.8612789,26.5334086 28.1300652,26.3718306 28.2708327,26.114262 C28.4116002,25.8566934 28.3940394,25.5430991 28.2324302,25.2967169 L28.2324302,25.2967169 Z M11.4996894,27.8404684 L10.1030133,25.3431186 C9.96196747,25.090221 9.69505822,24.9335046 9.40548766,24.9335648 L5.91142266,24.9335648 L8.26638016,21.3275108 L13.5426773,24.3736195 L11.4996894,27.8404684 L11.4996894,27.8404684 Z M15.4464914,23.626505 L7.81683031,19.2221227 C7.42445765,18.9950527 7.18252024,18.5763817 7.18170484,18.1230425 L7.18170484,9.31268422 C7.18170484,8.85991594 7.42486859,8.43917578 7.81683031,8.21360406 L15.4464914,3.80922172 C15.6416598,3.69563906 15.8624508,3.63964453 16.0816169,3.63964453 C16.300783,3.63964453 16.5200116,3.69563906 16.7167736,3.80922172 L24.3464347,8.21360406 C24.7388074,8.44067404 24.9807448,8.85934503 24.9815602,9.31268422 L24.9815602,18.1214177 C24.9815602,18.5741859 24.7383964,18.9949573 24.3464347,19.2205291 L16.7167736,23.6248802 C16.3238955,23.8517702 15.8399487,23.8523892 15.4464914,23.626505 Z M22.5929809,24.9335648 C22.303414,24.9335179 22.036511,25.0902306 21.8954553,25.3431186 L20.4988105,27.8404684 L18.4957873,24.4456125 L23.7752717,21.3979102 L26.0854523,24.9335648 L22.5929809,24.9335648 L22.5929809,24.9335648 Z" id="形状" fill="#231815" fill-rule="nonzero"></path>
                        <path d="M13.5314909,18.4733833 C13.2738911,18.4733833 13.0179161,18.3933911 12.79875,18.2334067 C12.41278,17.9554892 12.2200393,17.4811056 12.3027984,17.0127447 L12.6787617,14.8225523 L11.0869172,13.2707039 C10.7449114,12.9399353 10.6224428,12.4425811 10.7717605,11.9908289 C10.9166747,11.537575 11.3084158,11.2073956 11.779662,11.1413181 L13.9778223,10.8213494 L14.9617263,8.82954391 C15.1729244,8.40077328 15.6016638,8.13361187 16.0816169,8.13361187 C16.5600077,8.13361187 16.9887158,8.40077328 17.2015075,8.82954391 L18.1854114,10.8213494 L20.3836342,11.1413181 C20.8571505,11.2100927 21.2443314,11.536467 21.3915045,11.9908289 C21.5386777,12.4467844 21.4186894,12.9363616 21.0747542,13.2707039 L19.4829097,14.8209587 L19.858873,17.0111511 C19.9404275,17.483105 19.7500711,17.9502469 19.3629214,18.2318131 C18.9791418,18.5134383 18.467899,18.5501353 18.0478311,18.3262102 L16.0816169,17.2927173 L14.1154339,18.3262102 C13.929827,18.425388 13.7298466,18.4733833 13.5314909,18.4733833 L13.5314909,18.4733833 Z M16.0816169,15.6496591 C16.2815973,15.6496591 16.4815778,15.6976544 16.6623727,15.793645 L18.1614138,16.5823805 L17.8750667,14.9121373 C17.8062609,14.5073956 17.9406541,14.0946234 18.2334067,13.8066516 L19.4461008,12.6243608 L17.769452,12.381197 C17.3625507,12.3222137 17.0107519,12.0667287 16.8287627,11.698045 L16.0784297,10.1781934 L15.3280967,11.698045 C15.1461075,12.0667287 14.7943087,12.3222137 14.3874073,12.381197 L12.7107586,12.6243608 L13.9234527,13.8066516 C14.2179887,14.0934604 14.3520684,14.5071104 14.2817927,14.9121686 L13.9954456,16.5823805 L15.4960803,15.793645 C15.6816872,15.6976544 15.8816677,15.6496591 16.0816481,15.6496591 L16.0816169,15.6496591 Z" id="形状" fill="#FF3355" fill-rule="nonzero"></path>
                    </g>
                </g>
            </g>
        </g>
    </g>
</svg>