<?xml version="1.0" encoding="UTF-8"?>
<svg width="24px" height="28px" viewBox="0 0 24 28" version="1.1" xmlns="http://www.w3.org/2000/svg" xmlns:xlink="http://www.w3.org/1999/xlink">
    <title>收藏</title>
    <defs>
        <filter id="filter-1">
            <feColorMatrix in="SourceGraphic" type="matrix" values="0 0 0 0 0.690196 0 0 0 0 0.545098 0 0 0 0 0.341176 0 0 0 1.000000 0"></feColorMatrix>
        </filter>
    </defs>
    <g id="我的" stroke="none" stroke-width="1" fill="none" fill-rule="evenodd">
        <g id="封坛" transform="translate(-64.000000, -770.000000)">
            <g id="客服" transform="translate(60.000000, 637.000000)">
                <g id="收藏" transform="translate(0.000000, 131.000000)" filter="url(#filter-1)">
                    <g>
                        <rect id="矩形" fill="#000000" fill-rule="nonzero" opacity="0" x="0" y="0" width="32" height="32"></rect>
                        <path d="M19.278125,8.784375 C19.153125,8.846875 19.01875,8.878125 18.88125,8.878125 C18.5375,8.878125 18.228125,8.6875 18.075,8.378125 L16.00625,4.184375 L13.534375,9.190625 C13.4,9.45625 13.15,9.640625 12.859375,9.68125 L7.334375,10.484375 L11.33125,14.06875 C11.54375,14.278125 11.6375,14.575 11.590625,14.8625 L11.41875,15.865625 C11.34375,16.296875 10.971875,16.609375 10.534375,16.609375 C9.978125,16.609375 9.55625,16.109375 9.65,15.5625 L9.74375,15.021875 L5.909375,11.6 C5.45,11.15 5.2875,10.490625 5.4875,9.88125 C5.6875,9.26875 6.20625,8.834375 6.840625,8.74375 L12.1375,7.975 L14.50625,3.175 C14.790625,2.6 15.36875,2.240625 16.009375,2.240625 C16.653125,2.240625 17.228125,2.6 17.5125,3.175 L19.6875,7.584375 C19.903125,8.025 19.721875,8.5625 19.278125,8.784375 Z M17.984375,18.703125 C17.74375,19.121875 17.215625,19.271875 16.7875,19.05 L16.003125,18.6375 L15.28125,19.01875 C14.853125,19.24375 14.328125,19.090625 14.084375,18.671875 C13.828125,18.23125 13.99375,17.665625 14.44375,17.428125 L14.63125,17.328125 L15.5875,16.825 C15.715625,16.759375 15.859375,16.721875 16.00625,16.721875 C16.153125,16.721875 16.296875,16.759375 16.425,16.825 L17.38125,17.328125 L17.628125,17.45625 C18.078125,17.696875 18.240625,18.2625 17.984375,18.703125 Z M26.103125,11.596875 L22.26875,15.025 L22.3625,15.565625 C22.45625,16.1125 22.034375,16.6125 21.478125,16.6125 C21.040625,16.6125 20.66875,16.296875 20.59375,15.86875 L20.421875,14.8625 C20.371875,14.571875 20.46875,14.275 20.68125,14.06875 L24.678125,10.484375 L21.01875,9.953125 C20.53125,9.884375 20.1875,9.428125 20.259375,8.9375 C20.321875,8.5 20.703125,8.16875 21.146875,8.16875 C21.190625,8.16875 21.234375,8.171875 21.275,8.178125 L25.175,8.74375 C25.809375,8.8375 26.328125,9.271875 26.528125,9.88125 C26.725,10.490625 26.5625,11.15 26.103125,11.596875 Z" id="形状" fill="#1A1A1A" fill-rule="nonzero"></path>
                        <path d="M27.7625,16.91875 C27.540625,16.453125 27.128125,16.1125 26.634375,15.9875 C26.53125,15.9625 26.421875,15.946875 26.3125,15.946875 C26.25,15.946875 26.184375,15.95 26.121875,15.959375 L26.034375,15.971875 C25.959375,15.984375 25.884375,15.99375 25.809375,16.00625 C21.496875,16.725 18.61875,19.359375 16.01875,22.603125 C13.41875,19.359375 10.54375,16.725 6.23125,16.00625 C6.1375,15.990625 6.046875,15.978125 5.95625,15.9625 L5.91875,15.95625 C5.853125,15.946875 5.7875,15.940625 5.721875,15.940625 C5.615625,15.940625 5.509375,15.953125 5.403125,15.978125 C4.83125,16.11875 4.3625,16.5625 4.18125,17.134375 C4.140625,17.2625 4.11875,17.396875 4.11875,17.53125 L4.11875,26.2375 C4.11875,28.178125 5.690625,29.75 7.63125,29.75 L24.375,29.75 C26.315625,29.75 27.8876565,28.178125 27.8876565,26.2375 L27.8876565,17.484375 C27.890625,17.290625 27.846875,17.096875 27.7625,16.91875 Z M24.240625,28.125 L7.771875,28.125 C6.659375,28.125 5.75625,27.221875 5.75625,26.109375 L5.75625,17.60625 C5.7625,17.603125 5.765625,17.6 5.76875,17.59375 C5.8375,17.603125 5.903125,17.6125 5.9625,17.625 C10.015625,18.3 12.646875,20.85625 15.021875,23.990625 C14.940625,24.125 14.778125,24.39375 14.446875,24.95 C14.371875,25.075 14.334375,25.21875 14.334375,25.3625 C14.334375,25.765625 14.634375,26.109375 15.034375,26.165625 C15.071875,26.171875 15.10625,26.171875 15.14375,26.171875 C15.428125,26.171875 15.69375,26.01875 15.840625,25.775 C15.9,25.675 15.9625,25.56875 16.01875,25.471875 C16.23125,25.840625 16.46875,26.29375 16.675,26.7 C16.859375,27.065625 17.290625,27.234375 17.675,27.096875 C18.134375,26.93125 18.34375,26.403125 18.125,25.965625 C17.8,25.315625 17.440625,24.640625 17.140625,24.175 C17.1375,24.16875 17.13125,24.159375 17.128125,24.15625 C17.0875,24.096875 17.053125,24.040625 17.01875,23.9875 C19.390625,20.85625 22.021875,18.3 26.071875,17.625 L26.259375,17.596875 L26.259375,26.1125 C26.25625,27.221875 25.35625,28.125 24.240625,28.125 L24.240625,28.125 Z" id="形状" fill="#1A1A1A" fill-rule="nonzero"></path>
                    </g>
                </g>
            </g>
        </g>
    </g>
</svg>