<?xml version="1.0" encoding="UTF-8"?>
<svg width="21px" height="24px" viewBox="0 0 21 24" version="1.1" xmlns="http://www.w3.org/2000/svg" xmlns:xlink="http://www.w3.org/1999/xlink">
    <title>售后无忧</title>
    <defs>
        <filter id="filter-1">
            <feColorMatrix in="SourceGraphic" type="matrix" values="0 0 0 0 0.690196 0 0 0 0 0.545098 0 0 0 0 0.341176 0 0 0 1.000000 0"></feColorMatrix>
        </filter>
    </defs>
    <g id="我的" stroke="none" stroke-width="1" fill="none" fill-rule="evenodd">
        <g id="封坛" transform="translate(-316.000000, -475.000000)">
            <g id="售后无忧" transform="translate(313.000000, 473.000000)" filter="url(#filter-1)">
                <g transform="translate(1.800000, 1.800000)">
                    <rect id="矩形" fill="#000000" fill-rule="nonzero" opacity="0" x="0" y="0" width="23.9026779" height="23.9026779"></rect>
                    <path d="M11.6619858,0.329595519 L10.6861777,1.03873942 C10.5427616,1.14354706 10.2538287,1.33434832 9.85880422,1.56417817 C9.15181648,1.97455151 8.41668641,2.33440206 7.65891753,2.64103583 C6.57663541,3.07231949 5.43016217,3.3206079 4.26641792,3.37573972 L2.64691813,3.39922223 C2.30296742,3.40403472 2.02670899,3.6842471 2.02670899,4.02823147 L2.02670899,13.4634868 C2.02670899,15.8223123 3.34929271,18.4088201 5.63349237,20.5877453 C6.61266184,21.5220505 7.69876311,22.3154607 8.78444421,22.8857637 C9.94433099,23.4950719 11.0615011,23.8200689 12.0368891,23.8200689 C13.0068383,23.8200689 14.1327618,23.4887928 15.3077745,22.8723651 C16.4510291,22.2560591 17.5049072,21.4867401 18.4402858,20.5856678 C19.4338029,19.6507037 20.2792364,18.5699763 20.9475459,17.3806081 C21.6742667,16.0512551 22.0449683,14.7357908 22.0449683,13.4614093 L22.0416303,4.02781131 C22.041664,3.68382694 21.7653719,3.40361455 21.4214212,3.39880207 L19.7721364,3.37573972 C18.6186512,3.30912926 17.4829865,3.06030721 16.407321,2.63851484 L16.1502505,2.53160638 C14.9131702,2.00530396 13.7792636,1.34608958 13.4567875,1.09490138 L13.3905416,1.04291772 L12.3991874,0.328358369 C12.1789355,0.169637824 11.8817038,0.17013663 11.6619858,0.329595519 Z M12.0326874,1.61490133 L12.6407585,2.05268915 L12.7057439,2.10301549 C13.1955387,2.47119609 14.5353258,3.23692212 15.9418257,3.80680491 C17.1551137,4.28225565 18.4365576,4.5608561 19.7377296,4.63207754 L20.7831684,4.64760028 L20.7869498,13.4618295 C20.7869498,14.5131271 20.473694,15.6248117 19.8476026,16.7704596 C19.2411152,17.8482124 18.4741669,18.8274074 17.5730901,19.6744249 C16.7202094,20.4968722 15.7591631,21.1991804 14.71651,21.761941 C13.7155153,22.2873797 12.7808132,22.5620271 12.0368891,22.5620271 C11.2854253,22.5620271 10.3611806,22.2932387 9.36942957,21.7719783 C8.39068027,21.2578606 7.39850906,20.5336608 6.50194855,19.677366 L6.35349051,19.5335298 C4.39221043,17.6078937 3.28475081,15.3945851 3.28475081,13.46309 L3.28475081,4.64760028 L4.30544651,4.63336138 C5.63057456,4.57045345 6.91543687,4.29200126 8.12861449,3.8080654 C8.94288434,3.47870664 9.73280139,3.09208278 10.4924353,2.65109643 L10.7000198,2.52822172 C10.9977528,2.34918506 11.230057,2.19610522 11.3806158,2.08875325 L12.0326874,1.61490133 Z" id="形状" fill="#10298D" fill-rule="nonzero"></path>
                    <path d="M16.0344952,9.31114345 C16.2641115,9.06533635 16.6464788,9.04367824 16.9023834,9.26198439 C17.158288,9.48029054 17.1971548,9.86129341 16.9906023,10.1267757 L16.9486793,10.1758415 L11.9190563,15.4931369 C11.7035275,15.7212633 11.3528192,15.755615 11.0971217,15.5736451 L11.0480792,15.5346632 L7.69330097,12.5992322 C7.44054776,12.3788858 7.40507956,11.9990087 7.61267328,11.7356809 C7.82026699,11.472353 8.19792864,11.4181655 8.47118841,11.6124998 L8.52151475,11.6523454 L11.4204381,14.1893906 L16.0344952,9.31114345 L16.0344952,9.31114345 Z" id="路径" fill="#10298D" fill-rule="nonzero"></path>
                </g>
            </g>
        </g>
    </g>
</svg>