<?xml version="1.0" encoding="UTF-8"?>
<svg width="26px" height="29px" viewBox="0 0 26 29" version="1.1" xmlns="http://www.w3.org/2000/svg" xmlns:xlink="http://www.w3.org/1999/xlink">
    <title>数据分析</title>
    <defs>
        <filter id="filter-1">
            <feColorMatrix in="SourceGraphic" type="matrix" values="0 0 0 0 0.690196 0 0 0 0 0.545098 0 0 0 0 0.341176 0 0 0 1.000000 0"></feColorMatrix>
        </filter>
    </defs>
    <g id="我的" stroke="none" stroke-width="1" fill="none" fill-rule="evenodd">
        <g id="封坛" transform="translate(-297.000000, -705.000000)">
            <g id="客服" transform="translate(60.000000, 637.000000)">
                <g id="数据分析" transform="translate(233.000000, 66.000000)" filter="url(#filter-1)">
                    <g transform="translate(-1.062500, -1.062500)">
                        <rect id="矩形" fill="#000000" fill-rule="nonzero" opacity="0" x="0" y="0" width="36.1216797" height="36.1216797"></rect>
                        <path d="M11.1904893,27.6301924 L7.78207019,27.6301924 C6.92024993,27.6301924 6.22160658,26.931549 6.22160658,26.0697288 L6.22160658,11.6051831 C6.22160658,10.7426016 6.91945344,10.0432732 7.78207019,10.0432732 L11.1919356,10.0432732 C12.0545171,10.0432732 12.7523992,10.7426016 12.7523992,11.6037368 L12.7523992,26.0668715 C12.7523992,26.9265252 12.0501782,27.6287461 11.1919356,27.6287461 L11.1904893,27.6301924 Z M8.56373064,25.2880683 L10.4102751,25.2880683 L10.4102751,12.3868436 L8.56373064,12.3868436 L8.56373064,25.2880683 Z M28.0159607,27.6301924 L24.6061305,27.6301924 C23.7443103,27.6301924 23.0456669,26.931549 23.0456669,26.0697288 L23.0456669,11.6051831 C23.0456669,10.7426016 23.7435491,10.0432732 24.6061305,10.0432732 L28.0159959,10.0432732 C28.8786127,10.0432732 29.5764595,10.7426016 29.5764595,11.6037368 L29.5764595,26.0668715 C29.5764595,26.9265252 28.8786127,27.6287461 28.0159959,27.6287461 L28.0159607,27.6301924 Z M25.3920945,25.2880683 L27.238639,25.2880683 L27.238639,12.3868436 L25.3920593,12.3868436 L25.3920593,25.2880683 L25.3920945,25.2880683 Z M19.6053944,27.4741355 L16.195529,27.4741355 C15.3337225,27.4741355 14.6350654,26.7755136 14.6350654,25.9137071 L14.6350654,4.81141479 C14.6350654,3.94883331 15.3329475,3.24950489 16.195529,3.24950489 L19.6053944,3.24950489 C20.4679759,3.24950489 21.165858,3.94883331 21.165858,4.80996851 L21.165858,25.9108146 C21.165858,26.7704682 20.463637,27.4726892 19.6053944,27.4726892 L19.6053944,27.4741355 Z M16.9771895,25.1320114 L18.823734,25.1320114 L18.823734,5.59162896 L16.9771895,5.59162896 L16.9771895,25.1305651 L16.9771895,25.1320114 Z M29.8899844,31.4691791 L6.22739169,31.4691791 C5.58024235,31.4691791 5.05562415,30.9445609 5.05562415,30.2974116 C5.05562415,29.6502622 5.58024235,29.1256441 6.22739169,29.1256441 L29.8913954,29.1256441 C30.5385545,29.1264331 31.062541,29.6516988 31.0617529,30.2988579 C31.060963,30.9460169 30.5356972,31.4700034 29.8885382,31.4692153 L29.8899844,31.4691791 Z" id="形状" fill="#333333" fill-rule="nonzero"></path>
                    </g>
                </g>
            </g>
        </g>
    </g>
</svg>