<?xml version="1.0" encoding="UTF-8"?>
<svg width="30px" height="32px" viewBox="0 0 30 32" version="1.1" xmlns="http://www.w3.org/2000/svg" xmlns:xlink="http://www.w3.org/1999/xlink">
    <title>提现记录</title>
    <defs>
        <filter id="filter-1">
            <feColorMatrix in="SourceGraphic" type="matrix" values="0 0 0 0 0.690196 0 0 0 0 0.545098 0 0 0 0 0.341176 0 0 0 1.000000 0"></feColorMatrix>
        </filter>
    </defs>
    <g id="我的" stroke="none" stroke-width="1" fill="none" fill-rule="evenodd">
        <g id="封坛" transform="translate(-61.000000, -703.000000)">
            <g id="客服" transform="translate(60.000000, 637.000000)">
                <g id="提现记录" transform="translate(0.000000, 66.000000)" filter="url(#filter-1)">
                    <g>
                        <rect id="矩形" fill="#000000" fill-rule="nonzero" opacity="0" x="0" y="0" width="32" height="32"></rect>
                        <path d="M30.229,11.8711875 C28.82775,3.93196875 21.165375,-1.25971875 13.2268438,0.26615625 C4.49565625,1.9473125 -0.66228125,11.0940937 2.40828125,19.4361875 C4.60884375,25.3904062 10.4459063,29.2189062 16.8066875,28.8659062 C17.1037813,28.8446875 17.3503438,28.9043437 17.3362188,29.1727812 C17.329125,29.5119687 17.3362188,30.1876562 17.3362188,30.1805937 C17.3362188,30.5127187 17.3432813,30.8104687 17.3362188,31.2035625 C17.329125,31.5963125 17.3025313,31.90925 17.4635313,31.979625 C17.6245313,32.0500312 17.9741563,31.9244062 18.2146875,31.7974062 C18.2641875,31.769125 18.3137188,31.7408437 18.3632188,31.7054375 C19.2053125,31.098125 20.0541563,30.5116875 20.8820938,29.8831562 C21.4691875,29.4381875 22.0849063,29.007375 22.5517813,28.4209687 C22.93375,27.9476875 23.0762188,27.5889687 23.0762188,27.2733437 C23.0762188,26.9577187 22.3749688,26.3935312 22.1270625,26.2099062 C20.8959375,25.2845937 19.6576875,24.3522812 18.3629375,23.5189375 C17.619875,23.0456875 17.3497188,23.319875 17.3355625,24.2026875 C17.3285,24.7325312 17.3497188,25.2620625 17.3568125,25.7919062 C17.363875,26.2934687 17.1317813,26.3160312 16.6362813,26.3372187 C15.6810313,26.3797187 14.7331563,26.3160312 13.7849688,26.1465937 C7.403625,25.0020625 3.03815625,18.779 4.16325,12.4293125 C5.11815625,7.02578125 9.406125,3.04203125 14.8895,2.5334375 C18.2995938,2.21546875 21.3422188,3.204375 23.87525,5.49284375 C27.044875,8.34653125 28.34675,11.9415937 27.7667188,16.1655312 C27.420125,18.6941562 26.3516563,20.8980937 24.5047813,22.6991562 C23.9318125,23.2572812 23.9600938,24.1472187 24.5613438,24.6699687 C25.1555625,25.1856562 26.05425,25.086625 26.5281563,24.4439687 C26.6484063,24.2886562 26.7545313,24.1118437 26.8818438,23.9636562 C29.8679063,20.4460625 31.0282813,16.3989687 30.229,11.8711563 L30.229,11.8711875 Z M15.9952812,5.7245625 C11.1599687,5.7245625 7.24025,9.64434375 7.24025,14.4796562 C7.24025,19.3149375 11.16,23.2346563 15.9952812,23.2346563 C20.8305938,23.2346563 24.7503438,19.3149062 24.7503438,14.4796562 C24.7503438,9.64403125 20.8305938,5.7245625 15.9952812,5.7245625 Z M16.672,17.0153437 C16.667625,17.1746562 16.80875,17.2066562 16.9630313,17.1837812 C17.6434375,17.1979062 19.4273438,17.1797187 19.5182813,17.1837812 C20.0225313,17.207 20.3725,17.4488437 20.3725,18.0207812 C20.3725,18.59275 20.0555313,18.8548438 19.5182813,18.8548438 C18.691,18.8548438 17.8728125,18.8639062 17.0455625,18.8548438 C16.8454688,18.8500937 16.635625,19.0242187 16.6581875,19.238125 C16.6854688,19.4701875 16.67875,19.50725 16.67875,20.0115 C16.67875,20.51575 16.3910625,20.889625 15.8265625,20.8761875 C15.262,20.8623438 14.9665625,20.5470625 14.9665625,20.0115 C14.9665625,19.7319063 14.961875,19.451 14.9665625,19.1687187 C14.9709688,19.0137813 14.881375,18.8504062 14.7358438,18.8504062 C13.903875,18.855125 13.0675,18.855125 12.2355313,18.855125 C11.7218438,18.855125 11.2852813,18.591375 11.2805582,18.0723125 C11.2762188,17.58525 11.6760313,17.1884687 12.1853125,17.1840937 C12.6080625,17.1840937 14.3036875,17.1794062 14.5165625,17.1884687 C14.8719375,17.1884687 14.961875,17.1712812 14.961875,17.03925 C14.9575,16.4790937 14.9575,15.9145625 14.9665625,15.3547187 C14.9709688,15.1815937 14.8412813,15.1479062 14.69475,15.1479062 C13.8900625,15.1569687 13.2547813,15.1479062 12.398875,15.1479062 C11.9141875,15.1479062 11.6194375,14.8835312 11.6194375,14.3435312 C11.6194375,13.8035312 12.0280313,13.4697812 12.398875,13.4697812 L14.7358438,13.4697812 C14.9052813,13.4697812 14.9527813,13.4694687 14.9665938,13.3100937 C15.0029688,12.9460312 14.8402813,12.4997187 14.5812813,12.2309062 C13.8765938,11.5023437 13.1992188,10.737375 12.5174375,9.98621875 C12.231125,9.67196875 12.0263438,9.3213125 12.16275,8.87534375 C12.2762813,8.502125 12.59025,8.31990625 12.9718125,8.39265625 C13.3218125,8.46103125 13.5990313,8.64296875 13.84025,8.89790625 C14.472125,9.57159375 15.113125,10.2412187 15.7403125,10.919625 C15.8538125,11.0425625 15.908375,11.056375 16.0357188,10.9334375 C16.77675,10.2139375 17.5269063,9.50825 18.2770313,8.80259375 C18.5407813,8.5523125 18.8452813,8.39265625 19.22725,8.4839375 C19.7681875,8.61128125 19.9864688,9.158 19.6819375,9.61775 C19.600125,9.7450625 19.4956875,9.85890625 19.3909375,9.968375 C18.58625,10.8060937 17.790625,11.6485312 16.9724688,12.4724375 C16.736,12.7135937 16.6810938,13.138375 16.676375,13.3980625 C16.672,13.5028125 16.8885625,13.4701562 16.9630313,13.4701562 C17.7131563,13.4701562 18.8099063,13.4576562 19.5741875,13.4701562 C20.1265938,13.4792187 20.3725,13.8413437 20.3725,14.3439062 C20.3725,14.8464687 20.0727188,15.1398437 19.5182813,15.1398437 C18.9638438,15.1398437 17.7946875,15.1526562 16.9448438,15.1482812 C16.740375,15.1482812 16.672,15.2543437 16.6767188,15.4682812 C16.6901563,15.9819062 16.6810938,16.5006562 16.672,17.0153437 L16.672,17.0153437 Z" id="形状" fill="#333333" fill-rule="nonzero"></path>
                    </g>
                </g>
            </g>
        </g>
    </g>
</svg>