<?xml version="1.0" encoding="UTF-8"?>
<svg width="23px" height="24px" viewBox="0 0 23 24" version="1.1" xmlns="http://www.w3.org/2000/svg" xmlns:xlink="http://www.w3.org/1999/xlink">
    <title>文件-售后单</title>
    <defs>
        <filter id="filter-1">
            <feColorMatrix in="SourceGraphic" type="matrix" values="0 0 0 0 0.690196 0 0 0 0 0.545098 0 0 0 0 0.341176 0 0 0 1.000000 0"></feColorMatrix>
        </filter>
    </defs>
    <g id="我的" stroke="none" stroke-width="1" fill="none" fill-rule="evenodd">
        <g id="封坛" transform="translate(-310.000000, -286.000000)">
            <g id="文件-售后单" transform="translate(307.000000, 284.000000)" filter="url(#filter-1)">
                <g transform="translate(1.866667, 0.933333)">
                    <rect id="矩形" fill="#000000" fill-rule="nonzero" opacity="0" x="0" y="0" width="25.7212956" height="25.7212956"></rect>
                    <path d="M15.3046733,7.23411439 L5.66923478,7.23411439 C5.22463817,7.23411439 4.86544429,6.87492051 4.86544429,6.4303239 C4.86544429,5.98572729 5.22463817,5.62653341 5.66923478,5.62653341 L15.3046733,5.62653341 C15.7492699,5.62653341 16.1084637,5.98572729 16.1084637,6.4303239 C16.1084637,6.87492051 15.7492699,7.23411439 15.3046733,7.23411439 Z M15.3046733,12.0593692 L5.66923478,12.0593692 C5.22463817,12.0593692 4.86544429,11.7001753 4.86544429,11.2555787 C4.86544429,10.8109821 5.22463817,10.4517882 5.66923478,10.4517882 L15.3046733,10.4517882 C15.7492699,10.4517882 16.1084637,10.8109821 16.1084637,11.2555787 C16.1084637,11.7001753 15.7492699,12.0593692 15.3046733,12.0593692 Z M10.486954,16.8821121 L5.66923478,16.8821121 C5.22463817,16.8821121 4.86544429,16.5229182 4.86544429,16.0783216 C4.86544429,15.633725 5.22463817,15.2745311 5.66923478,15.2745311 L10.486954,15.2745311 C10.9315506,15.2745311 11.2907445,15.633725 11.2907445,16.0783216 C11.2907445,16.5229182 10.9315506,16.8821121 10.486954,16.8821121 L10.486954,16.8821121 Z M4.01392875,20.9035764 C3.57184398,20.9035764 3.2126501,20.5443825 3.2126501,20.0997859 L3.2126501,4.01895244 C3.2126501,3.57435582 3.57184398,3.21516195 4.01392875,3.21516195 L16.9223016,3.21516195 C17.3643864,3.21516195 17.7235802,3.57435582 17.7235802,4.01895244 L17.7235802,11.2555787 C17.7235802,11.7001753 18.0827741,12.0593692 18.5248589,12.0593692 C18.9669437,12.0593692 19.3261375,11.7001753 19.3261375,11.2555787 L19.3261375,3.21516195 C19.3261375,2.32596872 18.6077498,1.60758098 17.7210684,1.60758098 L3.2126501,1.60758098 C2.32596872,1.60758098 1.60758098,2.32848057 1.60758098,3.21516195 L1.60758098,20.9035764 C1.60758098,21.7927696 2.32596872,22.5111573 3.2126501,22.5111573 L15.2896022,22.5111573 C15.7316869,22.5111573 16.0908808,22.1519635 16.0908808,21.7073669 C16.0908808,21.2627702 15.7316869,20.9035764 15.2896022,20.9035764 L4.01392875,20.9035764 Z M23.8776012,23.8776012 C23.5636205,24.1915818 23.0537159,24.1915818 22.7397353,23.8776012 L17.6231064,18.7609723 L18.7609723,17.6231064 L23.880113,22.7397353 C24.1915818,23.0537159 24.1915818,23.5636205 23.8776012,23.8776012 L23.8776012,23.8776012 Z M16.4299799,14.7068541 L17.678367,15.9552412 L17.3191732,17.2915429 L15.9803596,17.6507367 L14.7319725,16.4023496 C14.513442,17.208652 14.7219251,18.1078926 15.3549102,18.7408776 C16.2968521,19.6828196 17.8240541,19.6828196 18.7685079,18.7408776 C19.7104499,17.7989356 19.7104499,16.2717337 18.7685079,15.3297917 C18.1355229,14.6968067 17.2387941,14.4908354 16.4299799,14.7068541 Z" id="形状" fill="#000000" fill-rule="nonzero"></path>
                </g>
            </g>
        </g>
    </g>
</svg>