<?xml version="1.0" encoding="UTF-8"?>
<svg width="32px" height="32px" viewBox="0 0 32 32" version="1.1" xmlns="http://www.w3.org/2000/svg" xmlns:xlink="http://www.w3.org/1999/xlink">
    <title>代理商</title>
    <defs>
        <filter id="filter-1">
            <feColorMatrix in="SourceGraphic" type="matrix" values="0 0 0 0 0.690196 0 0 0 0 0.545098 0 0 0 0 0.341176 0 0 0 1.000000 0"></feColorMatrix>
        </filter>
    </defs>
    <g id="我的" stroke="none" stroke-width="1" fill="none" fill-rule="evenodd">
        <g id="封坛" transform="translate(-139.000000, -769.000000)">
            <g id="客服" transform="translate(60.000000, 637.000000)">
                <g id="代理商" transform="translate(78.000000, 131.000000)" filter="url(#filter-1)">
                    <g transform="translate(-1.062500, -1.062500)">
                        <rect id="矩形" fill="#000000" fill-rule="nonzero" opacity="0" x="0" y="0" width="36.1216797" height="36.1216797"></rect>
                        <path d="M32.0169305,27.0912598 L29.7265197,27.0912598 C27.9518538,24.8141979 25.5529454,23.102737 22.8223404,22.165589 L24.6284244,22.165589 C25.499337,22.165589 26.3345788,21.8196179 26.9504037,21.2037864 C27.5662286,20.5879548 27.9121907,19.7527093 27.9121814,18.8817967 L27.9121814,5.74662765 C27.9121814,3.93305874 26.4419933,2.46287066 24.6284244,2.46287066 L11.4932553,2.46287066 C9.6796864,2.46287066 8.20949831,3.93305874 8.20949831,5.74662765 L8.20949831,18.8817967 C8.20949831,20.6953656 9.6796864,22.1655537 11.4932553,22.1655537 L13.2993393,22.1655537 C10.5687428,23.1027174 8.16984679,24.8141904 6.39519523,27.0912598 L4.10474916,27.0912598 C3.66928979,27.0912504 3.25166251,27.2642294 2.94374293,27.5721424 C2.63582336,27.8800553 2.46283538,28.2976789 2.46283538,28.7331383 L2.46283538,32.0169305 C2.46283538,32.452396 2.63580987,32.8700286 2.94373046,33.1779492 C3.25165105,33.4858698 3.66928368,33.6588443 4.10474916,33.6588443 L7.38850615,33.6588443 C7.82397163,33.6588443 8.24160425,33.4858698 8.54952484,33.1779492 C8.85744544,32.8700286 9.03042928,32.452396 9.03041992,32.0169305 L9.03041992,28.7331735 C9.0294098,28.1854811 8.75537047,27.6743547 8.29976723,27.3703915 C10.5889915,24.7924465 13.7999979,23.2178954 17.239883,22.9865106 L17.239883,27.0912598 L16.4189613,27.0912598 C15.983502,27.0912504 15.5658747,27.2642294 15.2579551,27.5721424 C14.9500355,27.8800553 14.7770476,28.2976789 14.7770476,28.7331383 L14.7770476,32.0169305 C14.7770382,32.452396 14.9500221,32.8700286 15.2579427,33.1779492 C15.5658632,33.4858698 15.9834959,33.6588443 16.4189613,33.6588443 L19.7027183,33.6588443 C20.1381838,33.6588443 20.5558164,33.4858698 20.863737,33.1779492 C21.1716576,32.8700286 21.3446415,32.452396 21.3446321,32.0169305 L21.3446321,28.7331735 C21.3446415,28.2977081 21.1716576,27.8800754 20.863737,27.5721548 C20.5558164,27.2642343 20.1381838,27.0912504 19.7027183,27.0912598 L18.8817967,27.0912598 L18.8817967,22.9865106 C22.3168396,23.2093835 25.527124,24.7717878 27.8219125,27.3375504 C27.3565289,27.6479088 27.0811747,28.1738508 27.0912598,28.7331383 L27.0912598,32.0169305 C27.0912504,32.4523899 27.2642294,32.8700172 27.5721424,33.1779368 C27.8800553,33.4858563 28.2976789,33.6588443 28.7331383,33.6588443 L32.0169305,33.6588443 C32.452396,33.6588443 32.8700286,33.4858698 33.1779492,33.1779492 C33.4858698,32.8700286 33.6588443,32.452396 33.6588443,32.0169305 L33.6588443,28.7331735 C33.6588443,28.2977081 33.4858698,27.8800754 33.1779492,27.5721548 C32.8700286,27.2642343 32.452396,27.0912504 32.0169305,27.0912598 L32.0169305,27.0912598 Z M22.5596469,5.50855615 C23.3622527,6.21303022 24.0762373,7.01246649 24.6858875,7.88927115 L23.2656423,8.80056751 C22.6962888,7.89738491 22.0149623,7.06985837 21.2378897,6.33769686 L22.5596469,5.50855615 Z M20.2527626,5.62348236 C20.2527626,7.07656864 20.3430668,8.46397272 20.4415901,9.72823151 L24.6283891,9.16996813 L24.8828988,10.8118819 L20.5975765,11.4029511 C21.0080373,14.6867434 21.7961531,16.8704823 22.9782915,17.0182496 C23.3148863,17.0182496 23.4954947,16.312219 23.6104209,14.6703405 C24.0363802,15.0743424 24.5206943,15.4119638 25.0471043,15.6718705 C24.6776684,18.528799 23.8813688,19.2101724 23.0521928,19.1609284 C20.5482972,18.9310407 19.3825617,16.1480487 18.8489556,11.6410226 L15.9427831,12.0432996 L15.6883087,10.3357389 L18.6765663,9.94168101 C18.5698239,8.61174002 18.4795197,7.15865374 18.4384596,5.60707944 L20.2527626,5.62348236 Z M11.8216663,13.077706 C11.5548977,12.4524103 11.2305703,11.8532715 10.8528715,11.2880249 C12.6185056,9.70612638 13.9975317,7.74010601 14.8837547,5.54136197 L16.5666934,6.08318717 C16.1724832,7.02195672 15.7144099,7.93261098 15.1956922,8.80875133 L15.1956922,19.1773313 L13.3650215,19.1773313 L13.3650215,11.4193893 C12.8971286,12.0137316 12.3809075,12.5683806 11.821631,13.0776707 L11.8216663,13.077706 Z" id="形状" fill="#0000FF" fill-rule="nonzero"></path>
                    </g>
                </g>
            </g>
        </g>
    </g>
</svg>