<?xml version="1.0" encoding="UTF-8"?>
<svg width="28px" height="28px" viewBox="0 0 28 28" version="1.1" xmlns="http://www.w3.org/2000/svg" xmlns:xlink="http://www.w3.org/1999/xlink">
    <title>我的仓库</title>
    <defs>
        <filter id="filter-1">
            <feColorMatrix in="SourceGraphic" type="matrix" values="0 0 0 0 0.690196 0 0 0 0 0.545098 0 0 0 0 0.341176 0 0 0 1.000000 0"></feColorMatrix>
        </filter>
    </defs>
    <g id="我的" stroke="none" stroke-width="1" fill="none" fill-rule="evenodd">
        <g id="封坛" transform="translate(-143.000000, -471.000000)">
            <g id="我的仓库" transform="translate(142.000000, 470.000000)" filter="url(#filter-1)">
                <g>
                    <rect id="矩形" fill="#000000" fill-rule="nonzero" opacity="0" x="0" y="0" width="30" height="30"></rect>
                    <path d="M16.4970703,4.7109375 L11.9560547,4.7109375 C11.7451172,4.7109375 11.5751953,4.88085937 11.5751953,5.09179687 L11.5751953,5.65429687 C11.5751953,5.86523437 11.7451172,6.03515625 11.9560547,6.03515625 L16.5,6.03515625 C16.7109375,6.03515625 16.8808594,5.86523437 16.8808594,5.65429687 L16.8808594,5.09179687 C16.8779297,4.88085937 16.7080078,4.7109375 16.4970703,4.7109375 Z M5.15625,19.6347656 L9.70019531,19.6347656 C9.91113281,19.6347656 10.0810547,19.4648438 10.0810547,19.2539063 L10.0810547,18.6914062 C10.0810547,18.4804688 9.91113281,18.3105469 9.70019531,18.3105469 L5.15625,18.3105469 C4.9453125,18.3105469 4.77539062,18.4804688 4.77539062,18.6914062 L4.77539062,19.2539063 C4.77539062,19.4648438 4.9453125,19.6347656 5.15625,19.6347656 Z" id="形状" fill="#2972E9" fill-rule="nonzero"></path>
                    <path d="M10.0136719,14.5283203 L19.9892578,14.5283203 C20.7275391,14.5283203 21.328125,13.9277344 21.328125,13.1894531 L21.328125,3.21386719 C21.328125,2.47558594 20.7275391,1.875 19.9892578,1.875 L10.0136719,1.875 C9.27539063,1.875 8.67480469,2.47558594 8.67480469,3.21386719 L8.67480469,13.1894531 C8.67480469,13.9277344 9.27539063,14.5283203 10.0136719,14.5283203 Z M10.2802734,12.9199219 L10.2802734,3.48339844 L19.7197266,3.48339844 L19.7197266,12.9199219 L10.2802734,12.9199219 Z M13.1894531,15.4716797 L3.21386719,15.4716797 C2.47558594,15.4716797 1.875,16.0722656 1.875,16.8105469 L1.875,26.7861328 C1.875,27.5244141 2.47558594,28.125 3.21386719,28.125 L13.1894531,28.125 C13.9277344,28.125 14.5283203,27.5244141 14.5283203,26.7861328 L14.5283203,16.8105469 C14.5283203,16.0722656 13.9277344,15.4716797 13.1894531,15.4716797 L13.1894531,15.4716797 Z M12.9199219,17.0800781 L12.9199219,26.5195312 L3.48339844,26.5195312 L3.48339844,17.0800781 L12.9199219,17.0800781 Z M26.7861328,15.4716797 L16.8105469,15.4716797 C16.0722656,15.4716797 15.4716797,16.0722656 15.4716797,16.8105469 L15.4716797,26.7861328 C15.4716797,27.5244141 16.0722656,28.125 16.8105469,28.125 L26.7861328,28.125 C27.5244141,28.125 28.125,27.5244141 28.125,26.7861328 L28.125,16.8105469 C28.125,16.0722656 27.5244141,15.4716797 26.7861328,15.4716797 L26.7861328,15.4716797 Z M26.5166016,17.0800781 L26.5166016,26.5195312 L17.0800781,26.5195312 L17.0800781,17.0800781 L26.5166016,17.0800781 L26.5166016,17.0800781 Z" id="形状" fill="#010D1E" fill-rule="nonzero"></path>
                    <path d="M18.7529297,19.6347656 L23.296875,19.6347656 C23.5078125,19.6347656 23.6777344,19.4648438 23.6777344,19.2539062 L23.6777344,18.6914062 C23.6777344,18.4804688 23.5078125,18.3105469 23.296875,18.3105469 L18.7529297,18.3105469 C18.5419922,18.3105469 18.3720703,18.4804688 18.3720703,18.6914062 L18.3720703,19.2539062 C18.3720703,19.4648438 18.5419922,19.6347656 18.7529297,19.6347656 Z" id="路径" fill="#2972E9" fill-rule="nonzero"></path>
                </g>
            </g>
        </g>
    </g>
</svg>