<?xml version="1.0" standalone="no"?><!DOCTYPE svg PUBLIC "-//W3C//DTD SVG 1.1//EN" "http://www.w3.org/Graphics/SVG/1.1/DTD/svg11.dtd"><svg t="1684288945075" class="icon" viewBox="0 0 1024 1024" version="1.1" xmlns="http://www.w3.org/2000/svg" p-id="2456" xmlns:xlink="http://www.w3.org/1999/xlink" width="200" height="200"><path d="M843.52 372.906667v-1.28c-0.426667-2.56-1.28-5.12-2.56-7.253334l-62.293333-154.88c-11.946667-33.28-44.373333-54.613333-79.786667-52.906666H253.44c-34.133333-2.133333-65.706667 18.773333-76.8 51.2l-68.266667 160.853333c-0.426667 0.853333-0.853333 2.133333-0.853333 3.84-5.12 14.933333-7.68 30.72-7.253333 46.506667-0.853333 80.213333 63.573333 146.346667 143.786666 147.2h5.12c43.946667 0 85.333333-19.2 113.493334-52.906667 52.48 62.293333 145.066667 70.4 207.36 17.92 6.4-5.546667 12.373333-11.52 17.92-17.92 28.16 33.28 69.973333 52.48 113.493333 52.48h0.426667c24.746667 0.426667 49.066667-5.546667 71.253333-16.64 62.72-34.133333 92.16-107.946667 70.4-176.213333z m-148.48 23.04H255.146667c-14.933333 0-27.306667-15.36-27.306667-34.133334s12.373333-34.133333 27.306667-34.133333H695.466667c14.933333 0 27.306667 15.36 27.306666 34.133333-0.426667 18.773333-12.373333 34.133333-27.733333 34.133334zM799.146667 576.853333c-80.213333 0-145.066667 64.853333-145.066667 145.066667s64.853333 145.066667 145.066667 145.066667 145.066667-64.853333 145.066666-145.066667c0-79.786667-64.853333-145.066667-145.066666-145.066667z m51.2 174.933334c2.986667 0 5.546667 1.28 7.68 3.84 1.706667 2.133333 2.986667 5.12 2.986666 7.68 0 2.986667-1.28 5.546667-2.986666 8.106666-1.706667 2.133333-4.693333 3.413333-7.68 3.413334H814.933333v19.2c0.426667 8.106667-5.973333 15.36-14.08 15.786666h-2.986666c-4.693333 0.426667-8.96-1.28-12.8-3.84-3.413333-2.986667-5.12-7.253333-4.693334-11.52v-18.773333h-35.84c-2.986667 0-5.973333-1.706667-7.68-4.266667-1.706667-2.56-2.986667-5.12-3.413333-8.533333 0.426667-2.986667 1.28-5.546667 3.413333-7.253333 2.133333-2.133333 4.693333-3.413333 7.68-3.413334h35.84v-11.52h-35.84c-2.986667 0-5.546667-1.28-7.68-3.413333-1.706667-2.133333-2.986667-4.693333-3.413333-7.68 0.426667-2.986667 1.28-5.546667 3.413333-7.68s4.693333-3.413333 7.68-3.413333h26.88l-24.746666-43.093334c-1.28-1.706667-2.56-3.413333-3.413334-5.546666-1.28-2.133333-1.706667-4.693333-1.706666-7.253334 0.426667-2.986667 1.706667-5.973333 3.84-8.533333 2.986667-2.56 6.4-3.84 10.24-4.266667 2.986667 0.426667 5.546667 1.28 8.106666 2.986667 2.133333 1.706667 4.266667 3.413333 5.546667 5.973333l28.16 50.773334 31.146667-51.2c1.706667-2.133333 3.413333-3.84 5.546666-5.546667 2.56-1.706667 5.12-2.56 8.106667-2.986667 1.706667 0 3.413333 0.426667 5.12 0.853334 1.28 0.426667 2.986667 0.853333 4.266667 2.133333 1.28 0.853333 2.133333 2.133333 2.986666 3.84 0.853333 2.133333 1.706667 3.84 1.706667 5.973333 0 3.84-1.28 7.253333-3.84 10.24l-28.586667 45.653334h27.306667c2.986667 0 5.546667 1.28 7.68 3.413333 1.706667 2.133333 2.986667 4.693333 2.986667 7.68s-1.28 5.973333-3.413334 8.106667-4.693333 3.413333-7.68 3.84h-35.413333v11.093333h34.986667zM619.946667 722.346667c0-34.56 9.813333-66.986667 27.306666-94.72-20.906667-5.546667-40.96-13.653333-59.306666-25.173334-33.706667 20.906667-72.96 32-113.066667 32-40.533333 0-79.36-11.093333-113.066667-32-33.706667 20.48-72.533333 32-113.066666 32h-6.4c-36.266667-0.426667-70.4-9.813333-100.266667-26.453333v176.213333c0 28.16 23.04 51.2 51.2 51.2h467.2c-25.173333-30.72-40.533333-70.4-40.533333-113.066666z" fill="#B08B57" p-id="2457"></path></svg>
