<?xml version="1.0" encoding="UTF-8"?>
<svg width="24px" height="24px" viewBox="0 0 24 24" version="1.1" xmlns="http://www.w3.org/2000/svg" xmlns:xlink="http://www.w3.org/1999/xlink">
    <title>待付 款</title>
    <defs>
        <filter id="filter-1">
            <feColorMatrix in="SourceGraphic" type="matrix" values="0 0 0 0 0.690196 0 0 0 0 0.545098 0 0 0 0 0.341176 0 0 0 1.000000 0"></feColorMatrix>
        </filter>
    </defs>
    <g id="我的" stroke="none" stroke-width="1" fill="none" fill-rule="evenodd">
        <g id="封坛" transform="translate(-38.000000, -473.000000)">
            <g id="待付-款" transform="translate(36.000000, 471.000000)" filter="url(#filter-1)">
                <g transform="translate(0.933333, 0.933333)">
                    <rect id="矩形" fill="#000000" fill-rule="nonzero" opacity="0" x="0" y="0" width="26.1333333" height="26.1333333"></rect>
                    <path d="M15.7578896,12.5087047 C14.8176,12.5087047 14.0550375,13.2727219 14.0550375,14.2161505 L14.0550375,15.923826 C14.0550375,16.8672292 14.8176,17.6312464 15.7578896,17.6312464 L24.8544844,17.6312464 L24.8544844,12.5087047 L15.7578385,12.5087047 L15.7578896,12.5087047 Z M23.3074115,16.0841479 L15.7578896,16.0841479 C15.6720375,16.0841479 15.6021104,16.0122813 15.6021104,15.923826 L15.6021104,14.216125 C15.6021104,14.1277974 15.6720375,14.05565 15.7578896,14.05565 L23.3074115,14.05565 L23.3074115,16.0841224 L23.3074115,16.0841479 Z M15.7578896,11.6540375 L23.1516578,11.6540375 L23.1516578,6.51291667 L3.40897083,6.51291667 C2.70257969,6.51291667 2.13024948,5.94073958 2.13024948,5.23266406 C2.13024948,4.5262474 2.70242656,3.95251354 3.40897083,3.95251354 L10.0365016,3.95251354 L12.0371563,3.11675729 L3.83468385,3.11675729 C2.42361146,3.11675729 1.27897656,4.26284687 1.27897656,5.67718594 L1.27897656,21.9010349 C1.27897656,23.3153484 2.42358594,24.4628672 3.83468385,24.4628672 L20.5955422,24.4628672 C22.0070229,24.4628672 23.1516578,23.3153484 23.1516578,21.9010094 L23.1516578,18.4856839 L15.7578896,18.4856839 C14.3481188,18.4856839 13.2036115,17.3381651 13.2036115,15.923826 L13.2036115,14.2162781 C13.2036115,12.8018115 14.3481188,11.6541651 15.7578896,11.6540375 Z M15.7578896,20.0329099 L21.604687,20.0329099 L21.604687,21.9010349 C21.604687,22.460426 21.152024,22.9157943 20.5955167,22.9157943 L3.83468385,22.9157943 C3.27843177,22.9157943 2.82604948,22.4605536 2.82604948,21.9010349 L2.82604948,7.99955625 C3.01773304,8.03981056 3.21308061,8.06003809 3.40894531,8.05991302 L21.604687,8.05991302 L21.604687,10.1070667 L15.7578641,10.1070667 C13.4963099,10.1071943 11.656513,11.9506406 11.656513,14.2162781 L11.656513,15.923826 C11.656513,18.1895656 13.4963099,20.0329099 15.7578896,20.0329099 L15.7578896,20.0329099 Z M5.37693333,9.0044901 L3.67408125,9.0044901 L3.67408125,10.7119104 L4.52550729,10.7119104 L4.52550729,9.85895313 L5.37693333,9.85895313 L5.37693333,9.00451562 L5.37693333,9.0044901 Z M5.37693333,11.7419568 L3.67408125,11.7419568 L3.67408125,13.4496578 L4.56144063,13.4496578 L4.52550729,12.5948375 L5.37693333,12.6120896 L5.37693333,11.7419568 L5.37693333,11.7419568 Z M5.37693333,14.4795766 L3.67408125,14.4795766 L3.67408125,16.1869969 L4.54275938,16.1869969 L4.52550729,15.3339885 L5.37693333,15.3339885 L5.37693333,14.479551 L5.37693333,14.4795766 Z M5.37693333,17.2170432 L3.67408125,17.2170432 L3.67408125,18.9243104 L4.54275938,18.9243104 L4.52550729,18.0698729 L5.37693333,18.0885797 L5.37693333,17.2170432 L5.37693333,17.2170432 Z M5.37693333,19.9542292 L3.67408125,19.9542292 L3.67408125,21.6619302 L4.52550729,21.6619302 L4.52550729,20.8073651 L5.37693333,20.8073651 L5.37693333,19.9542292 Z M18.1013656,1.40897969 L8.09337083,5.62417917 L20.0178781,5.62417917 L18.1013911,1.40897969 L18.1013656,1.40897969 Z M15.7523771,4.07708073 L17.3156812,3.41864323 L17.6151682,4.07708073 L15.7524026,4.07708073 L15.7523771,4.07708073 Z M19.7155073,3.11668073 L20.5955422,3.11668073 C21.3411333,3.11668073 22.0070229,3.44258177 22.4732375,3.95243698 L20.1224115,3.95243698 L19.7155073,3.11668073 L19.7155073,3.11668073 Z" id="形状" fill="#000000" fill-rule="nonzero"></path>
                </g>
            </g>
        </g>
    </g>
</svg>