<?xml version="1.0" encoding="UTF-8"?>
<svg width="25px" height="23px" viewBox="0 0 25 23" version="1.1" xmlns="http://www.w3.org/2000/svg" xmlns:xlink="http://www.w3.org/1999/xlink">
    <title>待评价-我的</title>
    <defs>
        <filter id="filter-1">
            <feColorMatrix in="SourceGraphic" type="matrix" values="0 0 0 0 0.690196 0 0 0 0 0.545098 0 0 0 0 0.341176 0 0 0 1.000000 0"></feColorMatrix>
        </filter>
    </defs>
    <g id="我的" stroke="none" stroke-width="1" fill="none" fill-rule="evenodd">
        <g id="封坛" transform="translate(-246.000000, -287.000000)">
            <g id="待评价-我的" transform="translate(244.000000, 283.000000)" filter="url(#filter-1)">
                <g transform="translate(0.966667, 0.966667)">
                    <rect id="矩形" fill="#000000" fill-rule="nonzero" opacity="0" x="0" y="0" width="27.60658" height="27.60658"></rect>
                    <path d="M21.8368048,7.53659633 L2.26373956,7.53659633 C1.9324606,7.53659633 1.6563948,7.81266213 1.6563948,8.14394109 L1.6563948,21.4917225 C1.6563948,21.8230015 1.9324606,22.0990673 2.26373956,22.0990673 L6.95685815,22.0990673 L6.95685815,25.2048075 C6.95685815,25.4394634 7.09489105,25.6603161 7.31574369,25.7569391 C7.39856343,25.798349 7.48138317,25.8121523 7.56420291,25.8121523 C7.70223581,25.8121523 7.854072,25.7569391 7.96449832,25.6603161 L12.0778787,22.0990673 L21.8368048,22.0990673 C22.1680837,22.0990673 22.4441495,21.8230015 22.4441495,21.4917225 L22.4441495,8.14394109 C22.4441495,7.81266213 22.181887,7.53659633 21.8368048,7.53659633 L21.8368048,7.53659633 Z M20.8291646,20.6911317 L11.8570261,20.6911317 C11.7189932,20.6911317 11.5809603,20.7463448 11.470534,20.8291646 L8.33718715,23.5484127 L8.33718715,21.2708699 C8.33718715,20.9533942 8.07492464,20.6911317 7.75744897,20.6911317 L3.27137973,20.6911317 L3.27137973,9.08256481 L20.8291646,9.08256481 L20.8291646,20.6911317 L20.8291646,20.6911317 Z" id="形状" fill="#000000" fill-rule="nonzero"></path>
                    <path d="M17.5853914,12.9336827 L6.54275945,12.9336827 C6.21148049,12.9336827 5.93541469,12.6024038 5.93541469,12.1883051 C5.93541469,11.7742064 6.21148049,11.4429274 6.54275945,11.4429274 L17.5853914,11.4429274 C17.9166704,11.4429274 18.1927362,11.7742064 18.1927362,12.1883051 C18.1927362,12.6024038 17.9166704,12.9336827 17.5853914,12.9336827 Z M14.5900775,17.6682177 L6.66698906,17.6682177 C6.25289036,17.6682177 5.90780811,17.3369322 5.90780811,16.9228335 C5.90780811,16.5087348 6.23908707,16.1774493 6.66698906,16.1774493 L14.5900775,16.1774493 C14.7880168,16.1766274 14.9780883,16.2548919 15.1180537,16.3948573 C15.2580191,16.5348228 15.3362837,16.7248943 15.3354617,16.9228335 C15.3362837,17.1207728 15.2580191,17.3108443 15.1180537,17.4508097 C14.9780883,17.5907751 14.7880168,17.6690397 14.5900775,17.6682177 L14.5900775,17.6682177 Z" id="形状" fill="#000000" fill-rule="nonzero"></path>
                    <path d="M25.1633976,3.4508225 L5.93541469,3.4508225 C5.5075127,3.4508225 5.16243045,3.79590475 5.16243045,4.22380673 L5.16243045,6.6117759 C5.16243045,6.70839893 5.24525019,6.77741538 5.32806993,6.77741538 L6.59797261,6.77741538 C6.69459564,6.77741538 6.76361209,6.69459564 6.76361209,6.6117759 L6.76361209,5.16243045 C6.76361209,5.06580742 6.84643183,4.99679097 6.92925157,4.99679097 L24.1557575,4.99679097 C24.2523805,4.99679097 24.321397,5.07961071 24.321397,5.16243045 L24.321397,16.4259151 C24.321397,16.5225381 24.2385772,16.5915546 24.1557575,16.5915546 L23.5484127,16.5915546 C23.4517897,16.5915546 23.3827732,16.6743743 23.3827732,16.757194 L23.3827732,17.8338507 C23.3827732,17.9304737 23.465593,17.9994901 23.5484127,17.9994901 L25.1633976,17.9994901 C25.5912996,17.9994901 25.9501852,17.6544079 25.9501852,17.2127026 L25.9501852,4.22380673 C25.9501852,3.79590475 25.5912996,3.4508225 25.1633976,3.4508225 Z" id="路径" fill="#000000" fill-rule="nonzero"></path>
                </g>
            </g>
        </g>
    </g>
</svg>