<?xml version="1.0" encoding="UTF-8"?>
<svg width="24px" height="26px" viewBox="0 0 24 26" version="1.1" xmlns="http://www.w3.org/2000/svg" xmlns:xlink="http://www.w3.org/1999/xlink">
    <title>待签约</title>
    <defs>
        <filter id="filter-1">
            <feColorMatrix in="SourceGraphic" type="matrix" values="0 0 0 0 0.690196 0 0 0 0 0.545098 0 0 0 0 0.341176 0 0 0 1.000000 0"></feColorMatrix>
        </filter>
    </defs>
    <g id="我的" stroke="none" stroke-width="1" fill="none" fill-rule="evenodd">
        <g id="封坛" transform="translate(-92.000000, -472.000000)">
            <g id="待签约" transform="translate(89.000000, 470.000000)" filter="url(#filter-1)">
                <g transform="translate(3.000000, 2.000000)">
                    <path d="M15.7456049,7.39114815 L6.3418107,7.39114815 C5.9791358,7.39114815 5.69533333,7.10734568 5.69533333,6.74469959 C5.69533333,6.3820535 5.9791358,6.09822222 6.3418107,6.09822222 L15.7455761,6.09822222 C16.108251,6.09822222 16.3920535,6.38202469 16.3920535,6.74469959 C16.3920535,7.10737449 16.1082222,7.39114815 15.7455761,7.39114815 L15.7456049,7.39114815 Z M15.7456049,11.7303992 L6.3418107,11.7303992 C5.9791358,11.7303992 5.69533333,11.4465679 5.69533333,11.0839218 C5.69533333,10.7212757 5.9791358,10.4374444 6.3418107,10.4374444 L15.7455761,10.4374444 C16.108251,10.4374444 16.3920535,10.7212757 16.3920535,11.0839218 C16.3920535,11.4465679 16.1082222,11.7303992 15.7455761,11.7303992 L15.7456049,11.7303992 Z" id="形状" fill="#999899" fill-rule="nonzero"></path>
                    <path d="M8.63758025,25.3156996 L1.59895062,25.3156996 C1.23627572,25.3156996 0.952473251,25.0318971 0.952473251,24.669251 L0.952473251,0.863374486 C0.952473251,0.500728395 1.23630453,0.216925926 1.59895062,0.216925926 L20.1100617,0.216925926 C20.4727366,0.216925926 20.7565391,0.500728395 20.7565391,0.863374486 L20.7565391,7.85156379 C20.7565391,8.21423868 20.4727078,8.49804115 20.1100617,8.49804115 C19.7474156,8.49804115 19.4635844,8.21420988 19.4635844,7.85156379 L19.4635844,1.50985185 L2.24542798,1.50985185 L2.24542798,24.0227737 L8.64074897,24.0227737 C9.00339506,24.0227737 9.28719753,24.3065761 9.28719753,24.669251 C9.28405761,25.0287572 9.00025514,25.3156996 8.63760905,25.3156996 L8.63758025,25.3156996 Z" id="路径" fill="#999899" fill-rule="nonzero"></path>
                    <path d="M14.1688477,15.949786 L6.24093004,15.949786 C5.93500412,15.949786 5.69536214,15.7101152 5.69536214,15.4042181 C5.69536214,15.0983498 5.93503292,14.858679 6.24093004,14.858679 L14.1688477,14.858679 C14.4747449,14.858679 14.7144156,15.0983498 14.7144156,15.4042181 C14.7144156,15.710144 14.4747449,15.949786 14.1688189,15.949786 L14.1688477,15.949786 Z" id="路径" fill="#999899" fill-rule="nonzero"></path>
                    <path d="M13.9008025,24.8553128 C13.9764774,24.7953951 13.9985432,24.7543745 14.0584609,24.6976255 C14.3233663,24.4106543 14.5409712,24.0858313 14.8153251,23.8114774 C15.1684938,23.4677572 15.1905885,23.4961317 15.4964856,23.4866831 C16.0861564,23.4677572 16.6790535,23.4267654 17.2592757,23.3195473 C18.489144,23.0924938 19.5329794,22.5406173 20.3402551,21.5882716 C20.5357942,21.3517695 20.7344444,20.9481029 20.2204198,20.9575514 C20.4096502,20.8692593 20.5357942,20.8188189 20.6556296,20.7525926 C21.6016667,20.2322593 22.4688889,19.6393909 23.0270453,18.7059424 C23.175284,18.4505144 23.3424198,17.9680329 22.8378436,18.0658025 C23.1121975,17.8008971 23.3897202,17.5738436 23.6041564,17.3089383 C23.9195021,16.9242263 23.8406584,16.6498436 23.3676543,16.4511934 C23.2099671,16.3818272 23.0144568,16.3439753 22.8157778,16.331358 C22.1756091,16.2241399 21.2989383,16.3912757 20.6083292,16.7539506 C20.8132881,16.2619918 20.0375267,16.4795679 19.741107,16.5584115 C18.7855926,16.8043909 17.9404362,17.2490206 17.1709835,17.8481975 C17.2403786,17.4256049 16.6979794,17.6716132 16.325856,17.9869588 C15.5658519,18.5987243 14.9666749,19.3461111 14.5914115,20.2322593 C14.2666173,21.0300864 14.2666173,21.8373909 14.563037,22.5847778 C15.5564033,21.5030905 16.4929918,20.4687613 17.7133827,19.4249547 C19.0725638,18.2707613 20.6965926,17.3751646 21.6300412,17.296321 C18.0760576,19.0686173 15.7329877,21.9919095 13.4498354,24.9751193 L13.7809671,24.9751193" id="路径" fill="#323333" fill-rule="nonzero"></path>
                </g>
            </g>
        </g>
    </g>
</svg>