<?xml version="1.0" encoding="UTF-8"?>
<svg width="26px" height="25px" viewBox="0 0 26 25" version="1.1" xmlns="http://www.w3.org/2000/svg" xmlns:xlink="http://www.w3.org/1999/xlink">
    <title>待收货</title>
    <defs>
        <filter id="filter-1">
            <feColorMatrix in="SourceGraphic" type="matrix" values="0 0 0 0 0.690196 0 0 0 0 0.545098 0 0 0 0 0.341176 0 0 0 1.000000 0"></feColorMatrix>
        </filter>
    </defs>
    <g id="我的" stroke="none" stroke-width="1" fill="none" fill-rule="evenodd">
        <g id="封坛" transform="translate(-184.000000, -284.000000)">
            <g id="待收货" transform="translate(183.000000, 283.000000)" filter="url(#filter-1)">
                <g transform="translate(1.800000, 1.800000)">
                    <rect id="矩形" fill="#000000" fill-rule="nonzero" opacity="0" x="2.17628454e-05" y="3.02131313e-05" width="24.2923722" height="23.9647295"></rect>
                    <path d="M10.6840786,23.9647597 C10.361073,23.962398 10.0785314,23.7467793 9.99100666,23.4358491 C9.90348195,23.1249189 10.032057,22.7935737 10.3064,22.6230625 L14.0135143,20.3471153 C14.2340201,20.1837193 14.527851,20.1587329 14.7727804,20.2825497 C15.0177098,20.4063666 15.1718093,20.6577911 15.1709805,20.9322366 C15.170145,21.2066821 15.0145237,21.4571675 14.768848,21.5794968 L11.0617337,23.855444 C10.9485244,23.9264288 10.817701,23.9642968 10.6840786,23.9647597 L10.6840786,23.9647597 Z M10.6840786,11.8197836 C10.5666561,11.8209751 10.4506895,11.793686 10.3461384,11.7402201 L0.387669984,6.45286126 C0.151301552,6.32523674 0.00479354676,6.07745694 0.00685072342,5.80884247 C0.0089515744,5.540228 0.159277314,5.29474562 0.39759288,5.17079504 L10.3362155,0.0821749401 C10.5446567,-0.0273916467 10.7936615,-0.0273916467 11.0021027,0.0821749401 L20.9407487,5.3695338 C21.17809,5.49532766 21.326505,5.74196184 21.326505,6.01057861 C21.326505,6.27919537 21.17809,6.52582955 20.9407487,6.65162342 L11.0021027,11.7402201 C10.9035429,11.7906471 10.7947499,11.8178494 10.6840551,11.8197836 L10.6840786,11.8197836 Z M2.29586157,5.85655139 L10.6940014,10.3090764 L19.0722955,5.96589047 L10.6741323,1.54318093 L2.29586157,5.85655139 Z" id="形状" fill="#515151" fill-rule="nonzero"></path>
                    <path d="M10.6840786,23.9647597 C10.5505237,23.9637786 10.4198313,23.9259508 10.3064,23.855444 L0.367753984,17.7431742 C0.145068702,17.6170137 0.00533030973,17.3828565 1.07961706e-05,17.1269718 L1.07961706e-05,5.8167896 C-0.00137662296,5.56194081 0.131042925,5.32504564 0.348857079,5.19273217 C0.566671234,5.0604187 0.837936629,5.05209126 1.06345663,5.17079504 L11.0021027,10.4581539 C11.2385879,10.5826126 11.3875086,10.8269983 11.3897041,11.0942256 L11.3897041,23.2392415 C11.3897041,23.639925 11.0648928,23.9647597 10.6642094,23.9647597 L10.6840786,23.9647597 Z M1.45108145,16.7195011 L9.93866781,21.9472056 L9.93866781,11.5315117 L1.45108145,7.01937904 L1.45108145,16.7195011 Z" id="形状" fill="#515151" fill-rule="nonzero"></path>
                    <path d="M7.40432746,12.9726251 C7.28931972,12.9835786 7.17336977,12.9665234 7.06638733,12.922917 L2.71330188,10.5774159 C2.47073467,10.4642967 2.31014752,10.2268176 2.29550575,9.95957158 C2.28086398,9.69232558 2.41454599,9.43872417 2.64330337,9.29978222 C2.87206075,9.16084028 3.15873412,9.15912755 3.38913533,9.29532625 L7.74226759,11.6110352 C8.0310231,11.7693741 8.17691585,12.1023349 8.0975873,12.4219564 C8.01825875,12.7415779 7.73360924,12.9676801 7.40432746,12.9726251 L7.40432746,12.9726251 Z M19.0822184,15.5765427 C18.9924985,15.5781761 18.9037561,15.5576965 18.8238253,15.5169117 L16.9255332,14.5230541 C16.651087,14.3803411 16.5442962,14.0421667 16.6870092,13.7677205 C16.8297223,13.4932743 17.1678967,13.3864835 17.4423429,13.5291965 L19.340635,14.5230541 C19.5295216,14.6535456 19.6167421,14.8881585 19.5589696,15.1103488 C19.5011971,15.3325391 19.3107441,15.4949532 19.0822184,15.5169117 L19.0822184,15.5765427 Z" id="形状" fill="#515151" fill-rule="nonzero"></path>
                    <path d="M19.0822184,17.9916445 C18.7803257,17.9916445 18.5355932,17.746912 18.5355932,17.4450193 L18.5355932,15.0299175 C18.5355932,14.7280248 18.7803257,14.4832923 19.0822184,14.4832923 C19.3841112,14.4832923 19.6288436,14.7280248 19.6288436,15.0299175 L19.6288436,17.4549422 C19.6234329,17.7529528 19.3802781,17.9916936 19.0822184,17.9916445 L19.0822184,17.9916445 Z" id="路径" fill="#515151" fill-rule="nonzero"></path>
                    <path d="M19.0822184,20.2476991 C16.2005172,20.2476991 13.8644369,17.9116187 13.8644369,15.0299175 C13.8644369,12.1482163 16.2005172,9.81213594 19.0822184,9.81213594 C21.9639196,9.81213594 24.3,12.1482163 24.3,15.0299175 C24.2945268,17.9093486 21.9616495,20.2422258 19.0822184,20.2476991 L19.0822184,20.2476991 Z M19.0822184,11.302934 C17.5546871,11.302934 16.1775669,12.2230979 15.5930081,13.6343537 C15.0084494,15.0456095 15.3315714,16.6700337 16.4117025,17.7501581 C17.4918336,18.8302825 19.1162598,19.1533944 20.5275119,18.5688269 C21.9387641,17.9842595 22.8589195,16.6071335 22.85891,15.0796022 C22.8722013,14.0693806 22.4801763,13.0959508 21.7704635,12.3769013 C21.0607507,11.6578518 20.0925275,11.2531385 19.0822184,11.2532259 L19.0822184,11.302934 Z" id="形状" fill="#515151" fill-rule="nonzero"></path>
                </g>
            </g>
        </g>
    </g>
</svg>