<?xml version="1.0" encoding="UTF-8"?>
<svg width="20px" height="26px" viewBox="0 0 20 26" version="1.1" xmlns="http://www.w3.org/2000/svg" xmlns:xlink="http://www.w3.org/1999/xlink">
    <title>地址</title>
    <defs>
        <filter id="filter-1">
            <feColorMatrix in="SourceGraphic" type="matrix" values="0 0 0 0 0.690196 0 0 0 0 0.545098 0 0 0 0 0.341176 0 0 0 1.000000 0"></feColorMatrix>
        </filter>
    </defs>
    <g id="我的" stroke="none" stroke-width="1" fill="none" fill-rule="evenodd">
        <g id="封坛" transform="translate(-301.000000, -642.000000)">
            <g id="客服" transform="translate(60.000000, 637.000000)">
                <g id="地址" transform="translate(235.000000, 3.000000)" filter="url(#filter-1)">
                    <g transform="translate(0.968750, 0.000000)">
                        <rect id="矩形" fill="#000000" fill-rule="nonzero" opacity="0" x="0" y="0" width="30.0312413" height="30.0312413"></rect>
                        <path d="M24.1332111,11.9764238 C24.1332111,6.94091199 20.0511325,2.8588334 15.0156206,2.8588334 C9.9801088,2.8588334 5.89803021,6.94091199 5.89803021,11.9764238 C5.89803021,16.0890616 8.62119513,19.5652364 12.3625775,20.7014379 L15.0156206,23.354481 L17.6686638,20.7014379 C21.4100462,19.5652364 24.1332111,16.0890616 24.1332111,11.9764238 Z M15.0156206,8.88572813 C16.7225624,8.88572813 18.1063163,10.2694821 18.1063163,11.9764238 C18.1063163,13.6833656 16.7225624,15.0671195 15.0156206,15.0671195 C13.3086789,15.0671195 11.9249249,13.6833656 11.9249249,11.9764238 C11.9249249,10.2694821 13.3086789,8.88572813 15.0156206,8.88572813 Z M5.22836872,25.7043377 C5.22836872,26.2288391 7.09380834,26.7134985 10.1219946,26.9757492 C13.1501809,27.2379999 16.8810603,27.2379999 19.9092466,26.9757492 C22.9374329,26.7134985 24.8028726,26.2288391 24.8028726,25.7043377 C24.8028726,24.8935287 20.4209706,24.2362382 15.0156206,24.2362382 C9.61027066,24.2362382 5.22836872,24.8935287 5.22836872,25.7043377 L5.22836872,25.7043377 Z" id="形状" fill="#666666" fill-rule="nonzero"></path>
                    </g>
                </g>
            </g>
        </g>
    </g>
</svg>