<?xml version="1.0" encoding="UTF-8"?>
<svg width="24px" height="24px" viewBox="0 0 24 24" version="1.1" xmlns="http://www.w3.org/2000/svg" xmlns:xlink="http://www.w3.org/1999/xlink">
    <title>发货 待发货</title>
    <defs>
        <filter id="filter-1">
            <feColorMatrix in="SourceGraphic" type="matrix" values="0 0 0 0 0.690196 0 0 0 0 0.545098 0 0 0 0 0.341176 0 0 0 1.000000 0"></feColorMatrix>
        </filter>
    </defs>
    <g id="我的" stroke="none" stroke-width="1" fill="none" fill-rule="evenodd">
        <g id="封坛" transform="translate(-122.000000, -284.000000)">
            <g id="发货-待发货" transform="translate(119.000000, 281.000000)" filter="url(#filter-1)">
                <g>
                    <rect id="矩形" fill="#000000" fill-rule="nonzero" opacity="0" x="0" y="0" width="30" height="30"></rect>
                    <path d="M25.8398437,10.4589844 L4.16015625,10.4589844 C3.84345703,10.4589844 3.55136719,10.2887695 3.39550781,10.0133789 C3.23935547,9.73798828 3.24345703,9.39960938 3.40664063,9.12802734 L5.80517578,5.13046875 C6.48925781,3.98994141 7.74082031,3.28125 9.07089844,3.28125 L20.9293945,3.28125 C22.2597656,3.28125 23.5110352,3.98994141 24.1948242,5.13046875 L26.5936523,9.12773437 C26.7568359,9.39931641 26.7606445,9.73740234 26.6050781,10.0130859 C26.4488166,10.2885857 26.1565736,10.4588743 25.8398437,10.4589844 L25.8398437,10.4589844 Z M5.71259766,8.70117188 L24.2874023,8.70117188 L22.6875,6.03486328 C22.3192383,5.42050781 21.6457031,5.0390625 20.9291016,5.0390625 L9.07089844,5.0390625 C8.35488281,5.0390625 7.68076172,5.42080078 7.31220703,6.03486328 L5.71259766,8.70117188 Z M9.03837891,15.9670898 L4.16015625,15.9670898 C3.67470703,15.9670898 3.28125,15.5733398 3.28125,15.0878906 C3.28125,14.6024414 3.67470703,14.2089844 4.16015625,14.2089844 L9.03808594,14.2089844 C9.52353516,14.2089844 9.91699219,14.6024414 9.91699219,15.0878906 C9.91699219,15.5733398 9.52382813,15.9670898 9.03837891,15.9670898 Z M7.41210938,18.5888672 L4.16015625,18.5888672 C3.67470703,18.5888672 3.28125,18.1951172 3.28125,17.7099609 C3.28125,17.2248047 3.67470703,16.8310547 4.16015625,16.8310547 L7.41210938,16.8310547 C7.89755859,16.8310547 8.29101563,17.2248047 8.29101563,17.7099609 C8.29101563,18.1951172 7.89755859,18.5888672 7.41210938,18.5888672 Z M7.41210938,21.2106445 L4.16015625,21.2106445 C3.67470703,21.2106445 3.28125,20.8168945 3.28125,20.3317383 C3.28125,19.846582 3.67470703,19.452832 4.16015625,19.452832 L7.41210938,19.452832 C7.89755859,19.452832 8.29101563,19.846582 8.29101563,20.3317383 C8.29101563,20.8168945 7.89755859,21.2106445 7.41210938,21.2106445 Z M21.1523438,18.5888672 L12.8466797,18.5888672 C12.3612305,18.5888672 11.9677734,18.1951172 11.9677734,17.7099609 C11.9677734,17.2248047 12.3612305,16.8310547 12.8466797,16.8310547 L21.1523438,16.8310547 C21.6375,16.8310547 22.03125,17.2248047 22.03125,17.7099609 C22.03125,18.1951172 21.6375,18.5888672 21.1523438,18.5888672 Z M21.1523438,18.5888679 C20.9273438,18.5888679 20.7026367,18.5030273 20.530957,18.3313477 L18.046875,15.8472656 C17.7035156,15.5041992 17.7035156,14.9475586 18.046875,14.6044922 C18.3902344,14.2611328 18.9462891,14.2611328 19.2896484,14.6044922 L21.7737305,17.0885742 C22.1170898,17.4319336 22.1170898,17.9879883 21.7737305,18.3313477 C21.6091379,18.496479 21.3854938,18.5891631 21.1523438,18.5888679 Z M18.6685547,21.0729497 C18.4435547,21.0729497 18.2188477,20.9871094 18.047168,20.8154297 C17.7038086,20.4720703 17.7038086,19.9160156 18.047168,19.5726563 L20.53125,17.0885742 C20.8746094,16.7452148 21.4306641,16.7452148 21.7740234,17.0885742 C22.1173828,17.4319336 22.1173828,17.9879883 21.7740234,18.3313477 L19.2899414,20.8154297 C19.1253176,20.9805143 18.9016938,21.0731901 18.6685547,21.0729497 Z M22.9101562,26.71875 L7.08984375,26.71875 C5.01064453,26.71875 3.34130859,25.0880859 3.28886719,23.0056641 C3.2765625,22.5205078 3.66035156,22.1170898 4.14550781,22.1044922 C4.63300781,22.1015625 5.03408203,22.4759766 5.04609375,22.9611328 C5.07421875,24.0826172 5.97216797,24.9609375 7.08984375,24.9609375 L22.9101562,24.9609375 C24.0407227,24.9609375 24.9609375,24.0407227 24.9609375,22.9101562 L24.9609375,10.4589844 L5.0390625,10.4589844 L5.0390625,12.4365234 C5.0390625,12.9219727 4.64560547,13.3154297 4.16015625,13.3154297 C3.67470703,13.3154297 3.28125,12.9219727 3.28125,12.4365234 L3.28125,9.58007812 C3.28125,9.09462891 3.67470703,8.70117188 4.16015625,8.70117188 L25.8398437,8.70117188 C26.325,8.70117188 26.71875,9.09462891 26.71875,9.58007812 L26.71875,22.9101562 C26.71875,25.0101563 25.0101562,26.71875 22.9101562,26.71875 Z" id="形状" fill="#000000" fill-rule="nonzero"></path>
                </g>
            </g>
        </g>
    </g>
</svg>