<svg xmlns="http://www.w3.org/2000/svg" xmlns:xlink="http://www.w3.org/1999/xlink" fill="none" version="1.1" width="16.667402267456055" height="16.66597557067871" viewBox="0 0 16.667402267456055 16.66597557067871"><g style="mix-blend-mode:passthrough"><path d="M6.998,0.103476C3.6005,0.633476,0.783834,3.37014,0.148,6.75931C-0.158667,8.39098,0.0180002,10.0526,0.657167,11.5635C0.738,11.756,0.763,11.9351,0.731333,12.096L0.0163335,15.6693C-0.0386665,15.9426,0.0471668,16.2251,0.244667,16.4218C0.402167,16.5801,0.614667,16.666,0.833834,16.666C0.888,16.666,0.942167,16.661,0.997167,16.6501L4.56633,15.936C4.77133,15.8968,4.96967,15.9543,5.10217,16.0093C6.61467,16.6485,8.27633,16.8243,9.90633,16.5185C13.2963,15.8826,16.033,13.066,16.563,9.66848C16.9813,6.97931,16.1305,4.34431,14.2263,2.44014C12.3222,0.53681,9.68883,-0.312357,6.998,0.103476Z" fill-rule="evenodd" fill="#222B45" fill-opacity="1"/></g></svg>