<svg xmlns="http://www.w3.org/2000/svg" xmlns:xlink="http://www.w3.org/1999/xlink" fill="none" version="1.1" width="18.166667938232422" height="17.333333015441895" viewBox="0 0 18.166667938232422 17.333333015441895"><g style="mix-blend-mode:passthrough"><path d="M10.38107,0.8048118L12.4132,4.8998Q12.4037,4.88001,12.3781,4.87612L16.9214,5.53431Q17.5118,5.61501,17.8744,6.09278Q18.24,6.57458,18.151,7.17166Q18.0764,7.66075,17.7171,7.9992L14.4311,11.1919Q14.4551,11.1692,14.4468,11.1254L15.2425,15.6466Q15.3354,16.2468,14.9864,16.7259Q14.6402,17.201,14.0586,17.3004Q13.5729,17.3757,13.1443,17.1613L9.07531,15.0289Q9.09801,15.0413,9.13104,15.0233L5.04093,17.1703Q4.504770000000001,17.4422,3.93977,17.2686Q3.37206,17.0942,3.08909,16.5747Q2.85727,16.134700000000002,2.93624,15.6548L3.73145,11.1359Q3.72575,11.169,3.74603,11.189L0.432825,7.99308Q0,7.55963,0,6.96298Q0,6.36633,0.422689,5.94285Q0.434691,5.93082,0.447226,5.91935Q0.7767277,5.61786,1.217411,5.53845Q1.230114,5.53616,1.242889,5.53431L5.79142,4.87534Q5.7608,4.88023,5.7517,4.89848L7.7832,0.8048117Q8.0429,0.26769,8.618179999999999,0.07497200000000004Q9.19041,-0.11672300000000002,9.72908,0.15457200000000004Q10.15769,0.369385,10.37651,0.7957793L10.38107,0.8048118ZM9.04198,1.480634Q9.0471,1.490621,9.05436,1.494256Q9.07407,1.5041820000000001,9.09466,1.497284Q9.1183,1.4893640000000001,9.12685,1.4716019999999999L7.09403,5.56792Q6.76068,6.23634,6.00649,6.35985L1.4579550000000001,7.01881L1.350422,6.27656L1.483433,7.01467Q1.46944,7.01719,1.459807,7.026L0.953517,6.47268L1.484344,7.00251Q1.523801,6.96298,1.474208,6.91348L4.79726,10.11896Q5.33691,10.64913,5.20875,11.3958L4.41633,15.8984Q4.41915,15.8813,4.406359999999999,15.8572Q4.38635,15.8204,4.3438,15.8421L8.41406,13.7058Q9.09801,13.3336,9.77163,13.7003L13.8154,15.8197Q13.8162,15.8201,13.806,15.8218Q13.7533,15.8308,13.7652,15.9066L12.9733,11.4063Q12.8281,10.64439,13.3859,10.11604L16.688499999999998,6.90736Q16.6715,6.92339,16.6674,6.95042Q16.6633,6.97817,16.6795,6.99958Q16.692700000000002,7.01697,16.7063,7.01881L12.1526,6.35907Q11.3976,6.24426,11.0696,5.56659L9.03742,1.4716019999999999L9.04198,1.480634Z" fill="#4E55AF" fill-opacity="1"/></g></svg>