<svg xmlns="http://www.w3.org/2000/svg" xmlns:xlink="http://www.w3.org/1999/xlink" fill="none" version="1.1" width="12.000112533569336" height="11.99931526184082" viewBox="0 0 12.000112533569336 11.99931526184082"><g style="mix-blend-mode:passthrough"><path d="M7.36745,0.776648C7.25745,0.666647,7.11278,0.598647,6.95811,0.584647L0.72878,0.00331413C0.53078,-0.0166859,0.336113,0.0546475,0.195447,0.195314C0.0547802,0.335981,-0.0152198,0.531314,0.00278019,0.728648L0.584113,6.95798C0.599447,7.11265,0.66678,7.25798,0.77678,7.36731L5.05478,11.646C5.29145,11.8813,5.60145,11.9993,5.91145,11.9993C6.22145,11.9993,6.53145,11.8813,6.76811,11.6453L11.6454,6.76798C11.8741,6.53998,12.0001,6.23531,12.0001,5.91131C12.0001,5.58731,11.8741,5.28331,11.6454,5.05465L7.36745,0.776648Z" fill-rule="evenodd" fill="#222B45" fill-opacity="1"/></g></svg>