<svg t="1688365600968" class="icon" viewBox="0 0 1025 1024" version="1.1" xmlns="http://www.w3.org/2000/svg" p-id="2541" width="200" height="200">
<path d="M958.56 38.56c-13.6-13.6-28-26.56-42.72-38.56l-112.32 0c99.2 55.2 177.6 143.36 220.48 249.6L1024 117.12C1004.8 89.12 982.88 62.88 958.56 38.56z" p-id="2542" fill="#ada9a9">
</path>
<path d="M562.08 933.12C287.52 933.12 64.16 709.76 64.16 435.2c0-186.88 103.52-350.08 256.32-435.2l-112.32 0c-14.88 12.16-29.12 24.96-42.72 38.56C113.92 90.08 73.44 150.08 45.12 216.96 16 286.08 1.12 359.52 1.12 435.2c0 75.68 14.88 149.12 44.16 218.4 28.32 66.72 68.64 126.72 120.16 178.24 51.52 51.52 111.52 92 178.24 120.16 69.12 29.28 142.56 44.16 218.4 44.16 75.68 0 149.12-14.88 218.4-44.16 66.72-28.32 126.72-68.64 178.24-120.16 24.32-24.32 46.08-50.56 65.44-78.4l0-132.64C950.24 803.84 771.04 933.12 562.08 933.12z" p-id="2543" fill="#ada9a9">
</path>
<path d="M148.8 444.8c0 110.24 42.88 213.76 120.8 291.84s181.6 120.8 291.84 120.8 213.76-42.88 291.84-120.8 120.8-181.6 120.8-291.84-42.88-213.76-120.8-291.84C775.2 75.2 671.52 32.16 561.28 32.16S347.52 75.2 269.6 153.12C191.68 231.04 148.8 334.72 148.8 444.8zM561.28 54.56c215.2 0 390.24 175.04 390.24 390.24 0 215.2-175.04 390.24-390.24 390.24S171.2 660 171.2 444.8C171.2 229.76 346.24 54.56 561.28 54.56z" p-id="2544" fill="#ada9a9" >
</path>
<path d="M459.52 566.72 427.2 583.84l6.72 12.48c5.12 8 2.88 14.24-6.4 18.4l-86.08 45.76c-9.6 5.12-16.96 2.88-21.92-6.72L292.8 603.52l95.04-50.56c24-11.2 28.48-29.28 13.6-54.4L368 435.84l-176.64 93.92 14.24 26.88 136.32-72.48 16.16 30.56c6.24 10.4 4 18.24-7.2 23.36L278.4 576.64l-10.56-19.68-43.04 22.88 53.44 100.48c12.16 25.76 30.24 31.52 54.08 17.28l121.12-64.32c23.36-10.88 28.64-26.72 16-47.68L459.52 566.72zM629.12 498.4c2.4-14.24 0.8-29.6-4.8-45.76l22.4-12c19.68-10.56 23.68-26.08 12-46.72l-24.32-45.76-49.28 26.24-6.72-12.48 53.76-28.64-12.8-24.16-53.76 28.64-7.68-14.4-36.8 19.52 7.68 14.4-52 27.68c-0.32-2.08-0.8-4.48-1.6-7.2-0.32-3.68-0.96-6.08-1.6-7.2l-36.8 19.52c13.12 37.6 14.4 65.28 3.84 83.04l12 22.4c5.28-4.32 10.08-9.12 14.24-14.4l63.84 120.16 35.04-18.56-81.6-153.28c-0.64-11.2-2.4-24-5.44-38.56l10.08 18.88 52.96-28.16 6.72 12.48-51.04 27.2 40.96 77.12 49.28-26.24c2.88 6.88 4.16 13.6 3.68 19.84-3.68-1.12-8-2.72-12.8-4.64l-39.52 20.96c16.16 7.52 31.52 13.12 45.92 16.96-4.32 9.12-11.36 19.04-21.12 29.6l12 22.4c15.36-14.4 29.28-30.56 41.92-48.8 26.08-1.6 60.8-11.2 104.16-28.96l-12-22.4C675.68 492.32 648.8 499.36 629.12 498.4zM559.84 456.96l-16.16-30.56 16.96-9.12 15.2 28.64 0.96 1.76L559.84 456.96zM620 424.96l-6.24 3.36-1.92-3.52-14.24-26.88 16.16-8.64 11.04 20.64C628.64 416.16 627.04 421.12 620 424.96zM926.08 349.6l-87.84-164.96-183.84 97.76 70.08 131.84c12.32 21.76 16.32 38.56 11.68 50.08l13.28 25.12c28-29.44 32.32-61.76 12.96-96.64l34.08-18.08 32.48 60.96 39.52-20.96L836.16 353.6l33.12-17.6 15.68 29.6c4.8 7.52 3.04 12.96-4.96 16.48l-6.24 3.36 13.28 25.12 25.12-13.28C932.64 386.4 937.28 370.4 926.08 349.6zM722.08 314.24l-13.76-26.08 33.12-17.6 13.76 26.08L722.08 314.24zM749.76 366.24l-14.24-26.88 33.12-17.6 14.24 26.88L749.76 366.24zM794.72 275.68l-13.76-26.08 33.12-17.6 13.76 26.08L794.72 275.68zM822.4 327.68l-14.24-26.88 33.12-17.6 14.24 26.88L822.4 327.68z" p-id="2545" fill="#ada9a9">
</path>
</svg>