<?xml version="1.0" encoding="UTF-8"?>
<svg width="28px" height="28px" viewBox="0 0 28 28" version="1.1" xmlns="http://www.w3.org/2000/svg" xmlns:xlink="http://www.w3.org/1999/xlink">
    <title>购物车-填充</title>
    <g id="我的" stroke="none" stroke-width="1" fill="none" fill-rule="evenodd">
        <g id="编组-3" transform="translate(-257.000000, -9.000000)" fill="#B08B57" fill-rule="nonzero">
            <g id="编组" transform="translate(255.000000, 7.000000)">
                <g id="购物车-填充" transform="translate(-1.142857, -1.142857)">
                    <rect id="矩形" opacity="0" x="0" y="0" width="34.2857143" height="34.2857143"></rect>
                    <path d="M29.625,8.89285714 C29.1428571,8.35714286 28.4464286,8.03571429 27.6964286,8.03571429 L8.14285714,8.03571429 L8.03571429,6.75 C7.98214286,5.89285714 7.5,5.19642857 6.75,4.82142857 L5.14285714,4.125 C4.71428571,3.96428571 4.28571429,4.125 4.07142857,4.55357143 C3.91071429,4.98214286 4.07142857,5.41071429 4.5,5.625 L6.05357143,6.32142857 C6.26785714,6.42857143 6.42857143,6.64285714 6.42857143,6.91071429 L7.39285714,22.6071429 C7.5,24.2142857 8.94642857,25.5 10.6071429,25.5 L28.3928571,25.5 C28.8214286,25.5 29.1964286,25.125 29.1964286,24.6964286 C29.1964286,24.2678571 28.8214286,23.8928571 28.3928571,23.8928571 L10.6607143,23.8928571 C9.80357143,23.8928571 9.10714286,23.25 9.05357143,22.5 L9,21.6964286 L26.625,20.3571429 C27.8571429,20.25 28.875,19.3392857 28.9821429,18.1071429 L30.2678571,10.9821429 L30.2678571,10.9285714 C30.3214286,10.1785714 30.1071429,9.42857143 29.625,8.89285714 Z M8.35714286,28.6607143 C8.35714286,29.6962482 9.19660895,30.5357143 10.2321429,30.5357143 C11.2676768,30.5357143 12.1071429,29.6962482 12.1071429,28.6607143 C12.1071429,27.6251804 11.2676768,26.7857143 10.2321429,26.7857143 C9.19660895,26.7857143 8.35714286,27.6251804 8.35714286,28.6607143 Z M23.3571429,28.6607143 C23.3571429,29.6962482 24.196609,30.5357143 25.2321429,30.5357143 C26.2676768,30.5357143 27.1071429,29.6962482 27.1071429,28.6607143 C27.1071429,27.6251804 26.2676768,26.7857143 25.2321429,26.7857143 C24.196609,26.7857143 23.3571429,27.6251804 23.3571429,28.6607143 Z" id="形状"></path>
                </g>
            </g>
        </g>
    </g>
</svg>