<?xml version="1.0" encoding="UTF-8"?>
<svg width="20px" height="26px" viewBox="0 0 20 26" version="1.1" xmlns="http://www.w3.org/2000/svg" xmlns:xlink="http://www.w3.org/1999/xlink">
    <title>白酒</title>
    <g id="我的" stroke="none" stroke-width="1" fill="none" fill-rule="evenodd">
        <g id="编组-3" transform="translate(-185.000000, -9.000000)">
            <g id="白酒" transform="translate(181.000000, 8.000000)" filter="url(#filter-1)">
                <g>
                    <rect id="矩形" fill="#B08B57" fill-rule="nonzero" opacity="0" x="0" y="0" width="28" height="28"></rect>
                    <path d="M9.00730469,3.80039844 L13.0976562,3.80039844 L13.0976562,4.48508594 L9.00730469,4.48508594 L9.00730469,3.80039844 Z M13.7677148,1.75708203 L8.30443359,1.75708203 C8.30443359,1.75708203 7.959,2.05316016 8.082375,2.39856641 C8.20575,2.74402734 8.45247266,2.84271094 8.69922266,2.91673047 C8.94594531,2.99075 8.97063672,3.25256641 8.97063672,3.45477344 L13.1014844,3.45477344 C13.1014844,3.25256641 13.1261484,2.99077734 13.3728984,2.91673047 C13.6196211,2.84273828 13.8663711,2.74402734 13.9897187,2.39856641 C14.1130937,2.05313281 13.7676875,1.75708203 13.7676875,1.75708203 L13.7677148,1.75708203 Z M23.1587344,20.550168 C22.9553789,20.3556719 22.2112734,20.3859141 22.2112734,20.3859141 L15.3654922,20.3859141 C15.3654922,20.3859141 14.6213867,20.3556719 14.4180312,20.550168 C14.3121016,20.6514766 14.2614883,20.7278477 14.3065234,21.2705117 C14.4049062,22.4553984 14.9172187,24.5971523 17.1822383,26.2254453 L20.394582,26.2254453 C22.6596016,24.5971797 23.1718867,22.4553711 23.2702422,21.2704844 C23.3152773,20.7278477 23.2646367,20.6514492 23.1587344,20.550168 L23.1587344,20.550168 Z" id="形状" fill="#B08B57" fill-rule="nonzero"></path>
                    <path d="M13.7099922,20.9997266 C13.6589687,20.3848477 13.7163359,20.2983047 13.836375,20.1835156 C14.0667734,19.963125 14.9099453,19.9973867 14.9099453,19.9973867 L16.7383945,19.9973867 C17.0332148,18.7287734 17.2457031,17.3728516 17.2457031,16.0952695 C17.2457031,8.60280859 14.0412344,5.67456641 14.0412344,5.67456641 C13.7664297,5.21100781 13.1006094,4.83169531 12.5617188,4.83169531 L9.37042969,4.83169531 C8.83153906,4.83169531 8.16574609,5.21098047 7.89094141,5.67459375 C7.89094141,5.67459375 4.68644531,8.60280859 4.68644531,16.0952969 C4.68644531,20.2896094 6.97120703,25.3328906 6.97120703,25.3328906 C7.19359375,25.823793 7.81648437,26.2254453 8.355375,26.2254453 L13.5767734,26.2254453 C14.1157187,26.2254453 14.7386094,25.823793 14.9609687,25.3328906 C14.9609687,25.3328906 15.0388984,25.1607344 15.1653359,24.8554414 C14.0989844,23.4201133 13.7882773,21.9425937 13.7099922,20.9996992 L13.7099922,20.9997266 Z" id="路径" fill="#272636" fill-rule="nonzero"></path>
                </g>
            </g>
        </g>
    </g>
</svg>