<?xml version="1.0" encoding="UTF-8"?>
<svg width="30px" height="28px" viewBox="0 0 30 28" version="1.1" xmlns="http://www.w3.org/2000/svg" xmlns:xlink="http://www.w3.org/1999/xlink">
    <title>首页</title>
    <defs>
        <filter id="filter-1">
            <feColorMatrix in="SourceGraphic" type="matrix"></feColorMatrix>
        </filter>
    </defs>
    <g id="我的" stroke="none" stroke-width="1" fill="B08B57" fill-rule="evenodd">
        <g id="编组-3" transform="translate(-27.000000, -8.000000)">
            <g id="首页" transform="translate(26.000000, 6.000000)" filter="url(#filter-1)">
                <g transform="translate(-1.142857, -1.142857)">
                    <rect id="矩形" fill="#B08B57" fill-rule="nonzero" opacity="0" x="0" y="0" width="34.2857143" height="34.2857143"></rect>
                    <path d="M9.92075893,13.5803571 L16.1149554,7.38616071 C16.4162946,7.08482143 16.8147321,6.93415179 17.2098214,6.93415179 C17.6082589,6.93415179 18.0033482,7.08482143 18.3046875,7.38616071 L24.5223214,13.6037946 L31.0212054,20.1026786 C31.0848214,20.1662946 31.1919643,20.1462054 31.2287946,20.0658482 C31.4933036,19.4665179 31.6339286,18.8136161 31.6339286,18.140625 C31.6339286,16.8649554 31.1383929,15.6696429 30.2377232,14.7689732 L20.5814732,5.109375 C18.7198661,3.25111607 15.6964286,3.25111607 13.8348214,5.109375 L4.18191964,14.765625 C3.28125,15.6662946 2.78571429,16.8616071 2.78571429,18.1372768 C2.78571429,18.8102679 2.92633929,19.4665179 3.19084821,20.0625 C3.22767857,20.1428571 3.33482143,20.1629464 3.3984375,20.0993304 L9.92075893,13.5803571 L9.92075893,13.5803571 Z" id="路径" fill="#B08B57" fill-rule="nonzero"></path>
                    <path d="M6.75,18.9575893 C6.56919643,19.1383929 6.46875,19.3828125 6.46875,19.6372768 L6.46875,27.3616071 C6.46875,29.1796875 7.94196429,30.6529018 9.76004464,30.6529018 L13.21875,30.6529018 C13.5669643,30.6529018 13.8515625,30.3716518 13.8515625,30.0200893 L13.8515625,22.5502232 C13.8515625,22.1685268 14.3236607,21.9977679 14.6618304,21.9977679 L19.7611607,21.9977679 C20.1495536,21.9977679 20.5714286,22.2087054 20.5714286,22.5502232 L20.5714286,30.0200893 C20.5714286,30.3683036 20.8526786,30.6529018 21.2042411,30.6529018 L24.6629464,30.6529018 C26.4810268,30.6529018 27.9542411,29.1763393 27.9542411,27.3616071 L27.9542411,19.6372768 C27.9542411,19.3828125 27.8537946,19.1383929 27.6729911,18.9575893 L17.6116071,8.90290179 C17.3872768,8.67857143 17.0290179,8.67857143 16.8046875,8.90290179 L6.75,18.9575893 Z" id="路径" fill="#B08B57" fill-rule="nonzero"></path>
                </g>
            </g>
        </g>
    </g>
</svg>