<?xml version="1.0" encoding="UTF-8"?>
<svg width="20px" height="22px" viewBox="0 0 20 22" version="1.1" xmlns="http://www.w3.org/2000/svg" xmlns:xlink="http://www.w3.org/1999/xlink">
    <title>我的小</title>
    <defs>
        <filter id="filter-1">
            <feColorMatrix in="SourceGraphic" type="matrix"></feColorMatrix>
        </filter>
    </defs>
    <g id="我的" stroke="none" stroke-width="1" fill="B08B57" fill-rule="evenodd">
        <g id="编组-3" transform="translate(-338.000000, -11.000000)">
            <g id="我的小" transform="translate(336.000000, 10.000000)" filter="url(#filter-1)">
                <g transform="translate(1.714286, 1.714286)">
                    <rect id="矩形" fill="#B08B57" fill-rule="nonzero" opacity="0" x="0" y="0" width="20.5714286" height="20.5714286"></rect>
                    <path d="M10.2880862,13.7142924 C19.7999268,13.7142924 19.7056465,19.6028638 19.7056465,19.6028638 C19.7776274,20.1377009 19.3919079,20.5714286 18.8433426,20.5714286 L1.73282973,20.5714286 C1.18424432,20.5714286 0.777109453,20.1317143 0.870525872,19.6028638 C0.870525872,19.6028638 0.77453799,13.7142924 10.2880862,13.7142924 Z M10.2855147,0 L16.2856011,0 L16.2856011,6 C16.2856011,9.31371889 13.5992709,12.0000134 10.2855147,12.0000134 C6.97175852,12.0000134 4.28542836,9.31371889 4.28542836,6 C4.28542836,2.6862945 6.97175852,0 10.2855147,0 Z" id="形状" fill="#B08B57" fill-rule="nonzero"></path>
                </g>
            </g>
        </g>
    </g>
</svg>