<?xml version="1.0" encoding="UTF-8"?>
<svg width="24px" height="24px" viewBox="0 0 24 24" version="1.1" xmlns="http://www.w3.org/2000/svg" xmlns:xlink="http://www.w3.org/1999/xlink">
    <title>商品2</title>
    <g id="我的" stroke="none" stroke-width="1" fill="none" fill-rule="evenodd">
        <g id="编组-3" transform="translate(-108.000000, -11.000000)">
            <g id="商品2" transform="translate(106.000000, 9.000000)" filter="url(#filter-1)">
                <g>
                    <rect id="矩形" fill="#000000" fill-rule="nonzero" opacity="0" x="0" y="0" width="28" height="28"></rect>
                    <path d="M22.2852109,2.8 L5.79178906,2.8 C4.93409353,2.8 4.23857383,3.49488295 4.23778906,4.35257812 L2.83778906,23.646 C2.83778906,24.5042109 3.53360547,25.2 4.39178906,25.2 L23.6852109,25.2 C24.5433945,25.2 25.2377891,24.5042109 25.2377891,23.6474219 L23.8377891,4.354 C23.8377891,3.49630447 23.1429061,2.80078477 22.2852109,2.8 L22.2852109,2.8 Z M20.3742109,10.4916055 C20.272,13.8767891 17.5027891,16.604 14.0937891,16.604 C10.6917891,16.604 7.92960547,13.8907891 7.81478906,10.5167891 C7.28619597,10.265906 7.00337425,9.68101938 7.13497238,9.11090104 C7.26657052,8.5407827 7.7771342,8.13903009 8.36221094,8.1451406 C9.05521094,8.1451406 9.61660547,8.70657812 9.61660547,9.39960547 C9.61438861,9.75291317 9.46160998,10.0885089 9.19660547,10.3221836 C9.20968295,13.0194513 11.3979143,15.2001828 14.0952109,15.204 C16.7838998,15.2002598 18.9679698,13.0318037 18.991,10.3432109 C18.7078496,10.1112409 18.5422107,9.76560076 18.5387891,9.39957812 C18.5387891,8.70679516 19.1004006,8.1451406 19.7931836,8.1451406 C20.4859666,8.1451406 21.0475781,8.70679516 21.0475781,9.39957812 C21.0427873,9.86023201 20.7836587,10.2804716 20.3742109,10.4916055 L20.3742109,10.4916055 Z" id="形状" fill="#000000" fill-rule="nonzero"></path>
                </g>
            </g>
        </g>
    </g>
</svg>